<svg viewBox="0 0 127 240" fill="none" xmlns="http://www.w3.org/2000/svg">
<path fill-rule="evenodd" clip-rule="evenodd" d="M17.3031 0.273438H109.793C118.663 0.273437 125.854 7.1064 125.854 15.5353V224.465C125.854 232.894 118.663 239.727 109.793 239.727H17.3031C8.43276 239.727 1.24194 232.894 1.24194 224.465V15.5353C1.24194 7.1064 8.43276 0.273438 17.3031 0.273438Z" fill="#213648"/>
<path opacity="0.595562" fill-rule="evenodd" clip-rule="evenodd" d="M110.151 0H16.8903C12.5363 0.263499 8.5207 2.23533 4.84363 5.91549C7.2084 3.86683 11.4262 1.12539 17.0026 1.12539C17.0026 1.12539 106.321 1.12539 110.038 1.12539C115.615 1.12539 119.833 3.86683 122.197 5.91549C118.52 2.23533 114.505 0.263499 110.151 0Z" fill="url(#paint0_linear_8_2)" fill-opacity="0.65"/>
<path opacity="0.75" fill-rule="evenodd" clip-rule="evenodd" d="M123.331 222.082V16.7914C123.331 11.2832 121.291 9.24705 120.074 7.93956C118.857 6.63207 118.805 5.96519 120.554 6.95237C122.302 7.93956 125.799 10.8148 125.799 16.7914V222.082C125.799 228.059 122.302 230.934 120.554 231.921C118.805 232.908 118.857 232.241 120.074 230.934C121.291 229.626 123.331 227.59 123.331 222.082Z" fill="url(#paint1_linear_8_2)"/>
<path opacity="0.75" fill-rule="evenodd" clip-rule="evenodd" d="M3.71049 222.082V16.7914C3.71049 11.2832 5.75025 9.24705 6.96708 7.93956C8.1839 6.63207 8.2357 5.96519 6.48733 6.95237C4.73896 7.93956 1.24195 10.8148 1.24195 16.7914V222.082C1.24195 228.059 4.73896 230.934 6.48733 231.921C8.2357 232.908 8.1839 232.241 6.96708 230.934C5.75025 229.626 3.71049 227.59 3.71049 222.082Z" fill="url(#paint2_linear_8_2)"/>
<path fill-rule="evenodd" clip-rule="evenodd" d="M0 49.9476C0 49.2846 0.537505 48.7471 1.20055 48.7471V48.7471C1.8636 48.7471 2.4011 49.2846 2.4011 49.9476V78.4349C2.4011 79.0979 1.8636 79.6355 1.20055 79.6355V79.6355C0.537505 79.6355 0 79.0979 0 78.4349V49.9476Z" fill="#2E423C"/>
<path fill-rule="evenodd" clip-rule="evenodd" d="M124.557 75.1415C124.557 74.4784 125.095 73.9409 125.758 73.9409V73.9409C126.421 73.9409 126.958 74.4784 126.958 75.1415V95.2764C126.958 95.9394 126.421 96.4769 125.758 96.4769V96.4769C125.095 96.4769 124.557 95.9394 124.557 95.2764V75.1415Z" fill="#2E423C"/>
<path fill-rule="evenodd" clip-rule="evenodd" d="M52.5612 5.97314L16.5746 5.97314C11.2039 5.97314 7.29065 9.60353 7.29065 14.345V217.092C7.29065 223.274 13.3374 228.752 20.1747 228.752H106.909C113.495 228.752 119.793 223.232 119.793 217.092V14.8931C119.793 9.21004 115.542 6.00694 110.509 5.97314L73.9521 5.97314C73.8136 5.99567 71.3023 7.02038 70.241 9.60353C69.1796 12.1867 67.044 14.2459 64.7059 14.2459H61.9902C60.8788 14.2459 57.9528 13.1756 56.4711 9.60353C54.9895 6.03143 52.6997 5.99567 52.5612 5.97314Z" fill="white"/>
<mask id="mask0_8_2" style="mask-type:alpha" maskUnits="userSpaceOnUse" x="7" y="5" width="113" height="224">
<path fill-rule="evenodd" clip-rule="evenodd" d="M52.5612 5.97314L16.5746 5.97314C11.2039 5.97314 7.29065 9.60353 7.29065 14.345V217.092C7.29065 223.274 13.3374 228.752 20.1747 228.752H106.909C113.495 228.752 119.793 223.232 119.793 217.092V14.8931C119.793 9.21004 115.542 6.00694 110.509 5.97314L73.9521 5.97314C73.8136 5.99567 71.3023 7.02038 70.241 9.60353C69.1796 12.1867 67.044 14.2459 64.7059 14.2459H61.9902C60.8788 14.2459 57.9528 13.1756 56.4711 9.60353C54.9895 6.03143 52.6997 5.99567 52.5612 5.97314Z" fill="white"/>
</mask>
<g mask="url(#mask0_8_2)">
<rect x="7" y="6" width="113" height="223" fill="url(#paint3_linear_8_2)"/>
<path fill-rule="evenodd" clip-rule="evenodd" d="M58.7615 65.3105V67.1998H50.5433V65.5256C50.5433 64.9624 50.6491 64.4747 50.8606 64.0625C51.0721 63.6504 51.352 63.292 51.7002 62.9873C52.0485 62.6827 52.4302 62.4152 52.8455 62.1848C53.2608 61.9544 53.6774 61.7368 54.0953 61.532C54.5131 61.3272 54.8962 61.1211 55.2444 60.9137C55.5926 60.7064 55.8725 60.4747 56.084 60.2187C56.2955 59.9627 56.4013 59.6606 56.4013 59.3124C56.4013 58.867 56.2452 58.5035 55.9331 58.2219C55.621 57.9403 55.1941 57.7995 54.6524 57.7995C54.0901 57.7995 53.6129 57.9608 53.2208 58.2833C52.8287 58.6059 52.5863 59.0923 52.4934 59.7425H50.3344C50.3447 59.036 50.5111 58.3947 50.8335 57.8187C51.156 57.2427 51.6396 56.7857 52.2845 56.4478C52.9293 56.1099 53.7393 55.9409 54.7143 55.9409C55.5501 55.9409 56.271 56.0817 56.8772 56.3633C57.4834 56.6449 57.9516 57.0366 58.2817 57.5384C58.6119 58.0401 58.777 58.6264 58.777 59.2971C58.777 59.8552 58.6738 60.3364 58.4675 60.7409C58.2611 61.1454 57.9877 61.491 57.6472 61.7777C57.3067 62.0644 56.9327 62.3153 56.5251 62.5304C56.1176 62.7454 55.7113 62.9451 55.3063 63.1294C54.9013 63.3137 54.5286 63.5019 54.1881 63.6939C53.8476 63.8859 53.5742 64.1022 53.3679 64.3428C53.1615 64.5835 53.0583 64.8728 53.0583 65.2107V65.3105H58.7615ZM47.9974 56.0945V67.1998H45.7068V58.8824H43.7103V57.6152C44.35 57.6152 44.8672 57.555 45.2619 57.4347C45.6565 57.3144 45.9519 57.1403 46.1479 56.9124C46.344 56.6846 46.46 56.412 46.4962 56.0945H47.9974ZM62.7391 61.8545V59.4507H60.2628V61.8545H62.7391ZM62.7391 64.7576V67.1537H60.2628V64.7576H62.7391ZM71.6537 67.1998V64.7422H73.3794V62.8606H71.6537V56.0945H69.4328L64.3332 62.899V64.7422H69.4869L69.4792 67.1998H71.6537ZM66.4225 62.8606H69.4869V58.7902L66.4225 62.8606ZM78.6105 67.3688C79.5907 67.3688 80.4342 67.1499 81.141 66.7121C81.8478 66.2744 82.3907 65.6139 82.7699 64.7307C83.1491 63.8475 83.3387 62.7428 83.3387 61.4168C83.3387 60.3057 83.1543 59.3393 82.7854 58.5176C82.4165 57.6958 81.8877 57.0609 81.199 56.6129C80.5103 56.1649 79.6913 55.9409 78.7421 55.9409C77.896 55.9409 77.1583 56.1022 76.5289 56.4248C75.8995 56.7473 75.4094 57.1928 75.0586 57.7611C74.7078 58.3294 74.5324 58.9771 74.5324 59.7041C74.5324 60.426 74.6988 61.0494 75.0315 61.5742C75.3643 62.099 75.8234 62.5035 76.409 62.7876C76.9945 63.0718 77.6664 63.2139 78.4248 63.2139C78.8427 63.2139 79.2219 63.1588 79.5623 63.0488C79.9028 62.9387 80.2008 62.7825 80.4561 62.5803C80.7115 62.378 80.9114 62.1412 81.0559 61.8699C81.1178 62.7556 81.0468 63.4724 80.8431 64.0203C80.6393 64.5681 80.3349 64.9675 79.9299 65.2184C79.5249 65.4692 79.0542 65.5947 78.5177 65.5947C78.0327 65.5947 77.6303 65.4603 77.3105 65.1915C76.9906 64.9227 76.7843 64.5732 76.6914 64.1432H74.5401C74.5866 64.7934 74.8007 65.3604 75.1824 65.8443C75.5642 66.3281 76.0569 66.7032 76.6604 66.9694C77.264 67.2356 77.9141 67.3688 78.6105 67.3688ZM77.473 60.9521C77.8135 61.2721 78.2597 61.4321 78.8117 61.4321C79.1264 61.4321 79.4321 61.3617 79.7287 61.2209C80.0254 61.0801 80.2691 60.9022 80.46 60.6872C80.6509 60.4721 80.7463 60.2494 80.7463 60.019C80.7515 59.5224 80.6728 59.0961 80.5103 58.7403C80.3478 58.3844 80.1208 58.1118 79.8293 57.9224C79.5378 57.7329 79.1986 57.6382 78.8117 57.6382C78.4558 57.6382 78.1385 57.7201 77.8599 57.884C77.5813 58.0478 77.3621 58.2782 77.2021 58.5752C77.0422 58.8721 76.9622 59.2152 76.9622 59.6043C76.9622 60.1828 77.1325 60.6321 77.473 60.9521Z" fill="white"/>
</g>
<g clip-path="url(#clip0_8_2)">
<g filter="url(#filter0_d_8_2)">
<rect x="10.2443" y="80" width="105.004" height="42.5532" rx="2" fill="#FBFCFE"/>
</g>
<path d="M18.115 97.31V96.885H20.85V97.31H19.7475V100.5H19.2825V97.31H18.115ZM21.3513 100.5V96.785H21.8013V98.295C21.8446 98.2233 21.9029 98.1567 21.9763 98.095C22.0496 98.0317 22.1388 97.9808 22.2438 97.9425C22.3488 97.9025 22.4704 97.8825 22.6088 97.8825C22.7771 97.8825 22.9296 97.9142 23.0663 97.9775C23.2029 98.0392 23.3113 98.1275 23.3913 98.2425C23.4713 98.3575 23.5113 98.4942 23.5113 98.6525V100.5H23.0488V98.745C23.0488 98.59 22.9954 98.4708 22.8888 98.3875C22.7838 98.3025 22.6463 98.26 22.4763 98.26C22.3613 98.26 22.2529 98.2792 22.1513 98.3175C22.0496 98.3542 21.9671 98.4108 21.9038 98.4875C21.8421 98.5625 21.8113 98.6583 21.8113 98.775V100.5H21.3513ZM24.5621 99.315C24.5621 99.4783 24.5888 99.6267 24.6421 99.76C24.6971 99.8917 24.7796 99.9967 24.8896 100.075C25.0013 100.153 25.1404 100.192 25.3071 100.192C25.4721 100.192 25.6138 100.154 25.7321 100.077C25.8521 100.001 25.9288 99.89 25.9621 99.745H26.3996C26.3679 99.92 26.2979 100.067 26.1896 100.188C26.0813 100.307 25.9504 100.398 25.7971 100.46C25.6438 100.52 25.4838 100.55 25.3171 100.55C25.0754 100.55 24.8629 100.498 24.6796 100.392C24.4963 100.287 24.3529 100.137 24.2496 99.94C24.1463 99.7433 24.0946 99.5075 24.0946 99.2325C24.0946 98.9608 24.1413 98.7225 24.2346 98.5175C24.3279 98.3125 24.4629 98.1525 24.6396 98.0375C24.8179 97.9225 25.0321 97.865 25.2821 97.865C25.5254 97.865 25.7313 97.9175 25.8996 98.0225C26.0679 98.1275 26.1954 98.2758 26.2821 98.4675C26.3704 98.6575 26.4146 98.8833 26.4146 99.145V99.315H24.5621ZM24.5646 99.0025H25.9696C25.9696 98.8542 25.9446 98.7208 25.8946 98.6025C25.8446 98.4825 25.7679 98.3883 25.6646 98.32C25.5629 98.25 25.4346 98.215 25.2796 98.215C25.1179 98.215 24.9838 98.2542 24.8771 98.3325C24.7721 98.4092 24.6929 98.5083 24.6396 98.63C24.5879 98.75 24.5629 98.8742 24.5646 99.0025ZM28.1725 101.305V97.915H28.6325L28.6375 98.365C28.6675 98.3117 28.7059 98.2558 28.7525 98.1975C28.8009 98.1392 28.8592 98.085 28.9275 98.035C28.9975 97.985 29.0784 97.9442 29.17 97.9125C29.2634 97.8808 29.3692 97.865 29.4875 97.865C29.6942 97.865 29.8759 97.9125 30.0325 98.0075C30.1909 98.1008 30.3142 98.2442 30.4025 98.4375C30.4909 98.6308 30.535 98.8758 30.535 99.1725C30.535 99.4692 30.4917 99.72 30.405 99.925C30.32 100.128 30.1967 100.283 30.035 100.39C29.8734 100.497 29.6784 100.55 29.45 100.55C29.335 100.55 29.2325 100.533 29.1425 100.5C29.0542 100.468 28.9767 100.427 28.91 100.375C28.845 100.322 28.79 100.265 28.745 100.205C28.7017 100.145 28.6659 100.087 28.6375 100.032V101.305H28.1725ZM29.3625 100.19C29.5759 100.19 29.75 100.109 29.885 99.9475C30.02 99.7842 30.0875 99.5308 30.0875 99.1875C30.0875 98.8925 30.0259 98.6583 29.9025 98.485C29.7792 98.3117 29.5992 98.225 29.3625 98.225C29.1225 98.225 28.9409 98.3142 28.8175 98.4925C28.6942 98.6692 28.6325 98.9008 28.6325 99.1875C28.6325 99.3725 28.66 99.5408 28.715 99.6925C28.77 99.8442 28.8517 99.965 28.96 100.055C29.0684 100.145 29.2025 100.19 29.3625 100.19ZM31.827 100.55C31.6603 100.55 31.5128 100.521 31.3845 100.462C31.2562 100.402 31.1553 100.317 31.082 100.205C31.0103 100.093 30.9745 99.9583 30.9745 99.8C30.9745 99.5133 31.0745 99.3 31.2745 99.16C31.4745 99.02 31.7953 98.945 32.237 98.935L32.6995 98.9225V98.72C32.6995 98.5617 32.652 98.4367 32.557 98.345C32.462 98.2517 32.3145 98.205 32.1145 98.205C31.9662 98.2067 31.8353 98.2417 31.722 98.31C31.6103 98.3783 31.5378 98.49 31.5045 98.645H31.097C31.107 98.4767 31.1545 98.335 31.2395 98.22C31.3245 98.1033 31.4428 98.015 31.5945 97.955C31.7478 97.895 31.9287 97.865 32.137 97.865C32.362 97.865 32.5487 97.8967 32.697 97.96C32.847 98.0233 32.9587 98.1167 33.032 98.24C33.107 98.3633 33.1445 98.515 33.1445 98.695V100.5H32.7495L32.717 100.015C32.617 100.217 32.4895 100.357 32.3345 100.435C32.1812 100.512 32.012 100.55 31.827 100.55ZM31.967 100.217C32.0537 100.217 32.1395 100.202 32.2245 100.17C32.3112 100.138 32.3903 100.096 32.462 100.042C32.5337 99.9875 32.5903 99.9267 32.632 99.86C32.6753 99.7917 32.6978 99.7217 32.6995 99.65V99.2075L32.3145 99.215C32.1178 99.2183 31.9528 99.2383 31.8195 99.275C31.6878 99.3117 31.5887 99.3692 31.522 99.4475C31.457 99.5258 31.4245 99.6283 31.4245 99.755C31.4245 99.9 31.4745 100.013 31.5745 100.095C31.6762 100.177 31.807 100.217 31.967 100.217ZM34.1063 101.325C33.9546 101.325 33.8504 101.314 33.7938 101.293C33.7371 101.271 33.7088 101.26 33.7088 101.26V100.96L33.9713 100.965C34.0679 100.968 34.1479 100.962 34.2113 100.945C34.2746 100.928 34.3254 100.906 34.3638 100.878C34.4021 100.849 34.4313 100.818 34.4513 100.783C34.4729 100.748 34.4904 100.714 34.5038 100.683L34.5938 100.437L33.5838 97.915H34.0513L34.8138 99.91L35.5713 97.915H36.0238L34.9338 100.695C34.8671 100.858 34.7921 100.986 34.7088 101.078C34.6271 101.169 34.5354 101.233 34.4338 101.27C34.3338 101.307 34.2246 101.325 34.1063 101.325ZM36.5173 100.5V97.915H36.9623V98.29C37.0339 98.1767 37.1323 98.0775 37.2573 97.9925C37.3823 97.9075 37.5448 97.865 37.7448 97.865C37.8381 97.865 37.9331 97.8808 38.0298 97.9125C38.1281 97.9442 38.2181 97.9917 38.2998 98.055C38.3814 98.1183 38.4448 98.1958 38.4898 98.2875C38.5698 98.1608 38.6781 98.0592 38.8148 97.9825C38.9514 97.9042 39.1056 97.865 39.2773 97.865C39.3673 97.865 39.4614 97.8792 39.5598 97.9075C39.6581 97.9342 39.7489 97.9825 39.8323 98.0525C39.9173 98.1208 39.9864 98.2167 40.0398 98.34C40.0931 98.4617 40.1198 98.6183 40.1198 98.81V100.5H39.6548V98.855C39.6548 98.6983 39.6298 98.5775 39.5798 98.4925C39.5298 98.4058 39.4639 98.345 39.3823 98.31C39.3023 98.275 39.2164 98.2575 39.1248 98.2575C39.0448 98.2575 38.9598 98.2733 38.8698 98.305C38.7798 98.3367 38.7031 98.39 38.6398 98.465C38.5764 98.54 38.5448 98.6425 38.5448 98.7725V100.5H38.0848V98.72C38.0848 98.6183 38.0573 98.5333 38.0023 98.465C37.9489 98.3967 37.8814 98.345 37.7998 98.31C37.7198 98.275 37.6398 98.2575 37.5598 98.2575C37.4714 98.2575 37.3823 98.275 37.2923 98.31C37.2039 98.345 37.1289 98.4008 37.0673 98.4775C37.0073 98.5525 36.9773 98.6508 36.9773 98.7725V100.5H36.5173ZM41.1734 99.315C41.1734 99.4783 41.2001 99.6267 41.2534 99.76C41.3084 99.8917 41.3909 99.9967 41.5009 100.075C41.6126 100.153 41.7518 100.192 41.9184 100.192C42.0834 100.192 42.2251 100.154 42.3434 100.077C42.4634 100.001 42.5401 99.89 42.5734 99.745H43.0109C42.9793 99.92 42.9093 100.067 42.8009 100.188C42.6926 100.307 42.5618 100.398 42.4084 100.46C42.2551 100.52 42.0951 100.55 41.9284 100.55C41.6868 100.55 41.4743 100.498 41.2909 100.392C41.1076 100.287 40.9643 100.137 40.8609 99.94C40.7576 99.7433 40.7059 99.5075 40.7059 99.2325C40.7059 98.9608 40.7526 98.7225 40.8459 98.5175C40.9393 98.3125 41.0743 98.1525 41.2509 98.0375C41.4293 97.9225 41.6434 97.865 41.8934 97.865C42.1368 97.865 42.3426 97.9175 42.5109 98.0225C42.6793 98.1275 42.8068 98.2758 42.8934 98.4675C42.9818 98.6575 43.0259 98.8833 43.0259 99.145V99.315H41.1734ZM41.1759 99.0025H42.5809C42.5809 98.8542 42.5559 98.7208 42.5059 98.6025C42.4559 98.4825 42.3793 98.3883 42.2759 98.32C42.1743 98.25 42.0459 98.215 41.8909 98.215C41.7293 98.215 41.5951 98.2542 41.4884 98.3325C41.3834 98.4092 41.3043 98.5083 41.2509 98.63C41.1993 98.75 41.1743 98.8742 41.1759 99.0025ZM43.6608 100.5V97.915H44.1083V98.29C44.15 98.2183 44.2075 98.1508 44.2808 98.0875C44.3558 98.0242 44.4458 97.9733 44.5508 97.935C44.6575 97.8967 44.78 97.8775 44.9183 97.8775C45.0817 97.8775 45.2317 97.91 45.3683 97.975C45.5067 98.04 45.6167 98.1417 45.6983 98.28C45.7817 98.4167 45.8233 98.5933 45.8233 98.81V100.5H45.3608V98.855C45.3608 98.6533 45.3075 98.5042 45.2008 98.4075C45.0958 98.3092 44.9592 98.26 44.7908 98.26C44.6742 98.26 44.565 98.2792 44.4633 98.3175C44.3617 98.3542 44.2792 98.4108 44.2158 98.4875C44.1525 98.5625 44.1208 98.6575 44.1208 98.7725V100.5H43.6608ZM47.7378 98.2525H47.1553V99.86C47.1553 99.9517 47.1645 100.019 47.1828 100.062C47.2028 100.104 47.2353 100.131 47.2803 100.142C47.327 100.154 47.3903 100.16 47.4703 100.16H47.7528V100.47C47.7211 100.482 47.6728 100.492 47.6078 100.5C47.5445 100.508 47.4653 100.513 47.3703 100.513C47.192 100.513 47.0536 100.488 46.9553 100.44C46.857 100.392 46.7878 100.32 46.7478 100.225C46.7095 100.13 46.6903 100.013 46.6903 99.875V98.2525H46.2703V97.915H46.7028L46.8153 97.1625H47.1553V97.9125H47.7378V98.2525ZM49.5544 100.5V96.785H50.0044V98.295C50.0477 98.2233 50.106 98.1567 50.1794 98.095C50.2527 98.0317 50.3419 97.9808 50.4469 97.9425C50.5519 97.9025 50.6735 97.8825 50.8119 97.8825C50.9802 97.8825 51.1327 97.9142 51.2694 97.9775C51.406 98.0392 51.5144 98.1275 51.5944 98.2425C51.6744 98.3575 51.7144 98.4942 51.7144 98.6525V100.5H51.2519V98.745C51.2519 98.59 51.1985 98.4708 51.0919 98.3875C50.9869 98.3025 50.8494 98.26 50.6794 98.26C50.5644 98.26 50.456 98.2792 50.3544 98.3175C50.2527 98.3542 50.1702 98.4108 50.1069 98.4875C50.0452 98.5625 50.0144 98.6583 50.0144 98.775V100.5H49.5544ZM53.1405 100.55C52.9738 100.55 52.8263 100.521 52.698 100.462C52.5696 100.402 52.4688 100.317 52.3955 100.205C52.3238 100.093 52.288 99.9583 52.288 99.8C52.288 99.5133 52.388 99.3 52.588 99.16C52.788 99.02 53.1088 98.945 53.5505 98.935L54.013 98.9225V98.72C54.013 98.5617 53.9655 98.4367 53.8705 98.345C53.7755 98.2517 53.628 98.205 53.428 98.205C53.2796 98.2067 53.1488 98.2417 53.0355 98.31C52.9238 98.3783 52.8513 98.49 52.818 98.645H52.4105C52.4205 98.4767 52.468 98.335 52.553 98.22C52.638 98.1033 52.7563 98.015 52.908 97.955C53.0613 97.895 53.2421 97.865 53.4505 97.865C53.6755 97.865 53.8621 97.8967 54.0105 97.96C54.1605 98.0233 54.2721 98.1167 54.3455 98.24C54.4205 98.3633 54.458 98.515 54.458 98.695V100.5H54.063L54.0305 100.015C53.9305 100.217 53.803 100.357 53.648 100.435C53.4946 100.512 53.3255 100.55 53.1405 100.55ZM53.2805 100.217C53.3671 100.217 53.453 100.202 53.538 100.17C53.6246 100.138 53.7038 100.096 53.7755 100.042C53.8471 99.9875 53.9038 99.9267 53.9455 99.86C53.9888 99.7917 54.0113 99.7217 54.013 99.65V99.2075L53.628 99.215C53.4313 99.2183 53.2663 99.2383 53.133 99.275C53.0013 99.3117 52.9021 99.3692 52.8355 99.4475C52.7705 99.5258 52.738 99.6283 52.738 99.755C52.738 99.9 52.788 100.013 52.888 100.095C52.9896 100.177 53.1205 100.217 53.2805 100.217ZM56.1262 100.55C55.9462 100.55 55.7787 100.523 55.6237 100.467C55.4703 100.411 55.3428 100.323 55.2412 100.205C55.1395 100.085 55.0753 99.9325 55.0487 99.7475H55.4687C55.492 99.8492 55.5337 99.9342 55.5937 100.002C55.6553 100.069 55.732 100.12 55.8237 100.155C55.9153 100.188 56.0153 100.205 56.1237 100.205C56.297 100.205 56.437 100.172 56.5437 100.107C56.6503 100.042 56.7037 99.9425 56.7037 99.8075C56.7037 99.7125 56.6753 99.6367 56.6187 99.58C56.5637 99.5217 56.4778 99.4792 56.3612 99.4525L55.8262 99.32C55.6178 99.27 55.4512 99.1917 55.3262 99.085C55.2012 98.9783 55.1387 98.8292 55.1387 98.6375C55.137 98.4858 55.1728 98.3525 55.2462 98.2375C55.3195 98.1225 55.4295 98.0317 55.5762 97.965C55.7228 97.8983 55.9053 97.865 56.1237 97.865C56.4037 97.865 56.6295 97.9283 56.8012 98.055C56.9745 98.18 57.0645 98.3642 57.0712 98.6075H56.6637C56.647 98.4842 56.5912 98.3867 56.4962 98.315C56.4028 98.2417 56.277 98.205 56.1187 98.205C55.9537 98.205 55.8195 98.2383 55.7162 98.305C55.6128 98.37 55.5612 98.4717 55.5612 98.61C55.5612 98.7017 55.5978 98.7742 55.6712 98.8275C55.7445 98.8792 55.8528 98.9225 55.9962 98.9575L56.5137 99.0875C56.6337 99.1192 56.732 99.1608 56.8087 99.2125C56.887 99.2642 56.9487 99.3217 56.9937 99.385C57.0403 99.4483 57.0728 99.515 57.0912 99.585C57.1112 99.6533 57.1212 99.7192 57.1212 99.7825C57.1212 99.9408 57.0812 100.077 57.0012 100.192C56.9228 100.306 56.8095 100.394 56.6612 100.457C56.5145 100.519 56.3362 100.55 56.1262 100.55ZM60.1776 100.55C60.0259 100.55 59.8976 100.53 59.7926 100.49C59.6892 100.45 59.6042 100.399 59.5376 100.337C59.4709 100.274 59.4192 100.21 59.3826 100.145C59.3459 100.078 59.3192 100.02 59.3026 99.97L59.2526 100.5H58.9001V96.785H59.3651V98.325C59.3867 98.2817 59.4192 98.2342 59.4626 98.1825C59.5076 98.1308 59.5651 98.0808 59.6351 98.0325C59.7051 97.9842 59.7876 97.9442 59.8826 97.9125C59.9792 97.8808 60.0892 97.865 60.2126 97.865C60.5359 97.865 60.7926 97.9775 60.9826 98.2025C61.1742 98.4275 61.2701 98.7592 61.2701 99.1975C61.2701 99.4692 61.2292 99.7067 61.1476 99.91C61.0659 100.112 60.9442 100.269 60.7826 100.382C60.6209 100.494 60.4192 100.55 60.1776 100.55ZM60.0951 100.195C60.3051 100.195 60.4759 100.114 60.6076 99.9525C60.7392 99.7892 60.8051 99.53 60.8051 99.175C60.8051 98.8733 60.7434 98.64 60.6201 98.475C60.4984 98.3083 60.3201 98.225 60.0851 98.225C59.9134 98.225 59.7751 98.2625 59.6701 98.3375C59.5667 98.4108 59.4901 98.5183 59.4401 98.66C59.3917 98.8017 59.3667 98.9733 59.3651 99.175C59.3651 99.5367 59.4209 99.7975 59.5326 99.9575C59.6459 100.116 59.8334 100.195 60.0951 100.195ZM62.2037 99.315C62.2037 99.4783 62.2304 99.6267 62.2837 99.76C62.3387 99.8917 62.4212 99.9967 62.5312 100.075C62.6429 100.153 62.782 100.192 62.9487 100.192C63.1137 100.192 63.2554 100.154 63.3737 100.077C63.4937 100.001 63.5704 99.89 63.6037 99.745H64.0412C64.0095 99.92 63.9395 100.067 63.8312 100.188C63.7229 100.307 63.592 100.398 63.4387 100.46C63.2854 100.52 63.1254 100.55 62.9587 100.55C62.717 100.55 62.5045 100.498 62.3212 100.392C62.1379 100.287 61.9945 100.137 61.8912 99.94C61.7879 99.7433 61.7362 99.5075 61.7362 99.2325C61.7362 98.9608 61.7829 98.7225 61.8762 98.5175C61.9695 98.3125 62.1045 98.1525 62.2812 98.0375C62.4595 97.9225 62.6737 97.865 62.9237 97.865C63.167 97.865 63.3729 97.9175 63.5412 98.0225C63.7095 98.1275 63.837 98.2758 63.9237 98.4675C64.012 98.6575 64.0562 98.8833 64.0562 99.145V99.315H62.2037ZM62.2062 99.0025H63.6112C63.6112 98.8542 63.5862 98.7208 63.5362 98.6025C63.4862 98.4825 63.4095 98.3883 63.3062 98.32C63.2045 98.25 63.0762 98.215 62.9212 98.215C62.7595 98.215 62.6254 98.2542 62.5187 98.3325C62.4137 98.4092 62.3345 98.5083 62.2812 98.63C62.2295 98.75 62.2045 98.8742 62.2062 99.0025ZM65.0211 99.315C65.0211 99.4783 65.0478 99.6267 65.1011 99.76C65.1561 99.8917 65.2386 99.9967 65.3486 100.075C65.4603 100.153 65.5994 100.192 65.7661 100.192C65.9311 100.192 66.0728 100.154 66.1911 100.077C66.3111 100.001 66.3878 99.89 66.4211 99.745H66.8586C66.8269 99.92 66.7569 100.067 66.6486 100.188C66.5403 100.307 66.4094 100.398 66.2561 100.46C66.1028 100.52 65.9428 100.55 65.7761 100.55C65.5344 100.55 65.3219 100.498 65.1386 100.392C64.9553 100.287 64.8119 100.137 64.7086 99.94C64.6053 99.7433 64.5536 99.5075 64.5536 99.2325C64.5536 98.9608 64.6003 98.7225 64.6936 98.5175C64.7869 98.3125 64.9219 98.1525 65.0986 98.0375C65.2769 97.9225 65.4911 97.865 65.7411 97.865C65.9844 97.865 66.1903 97.9175 66.3586 98.0225C66.5269 98.1275 66.6544 98.2758 66.7411 98.4675C66.8294 98.6575 66.8736 98.8833 66.8736 99.145V99.315H65.0211ZM65.0236 99.0025H66.4286C66.4286 98.8542 66.4036 98.7208 66.3536 98.6025C66.3036 98.4825 66.2269 98.3883 66.1236 98.32C66.0219 98.25 65.8936 98.215 65.7386 98.215C65.5769 98.215 65.4428 98.2542 65.3361 98.3325C65.2311 98.4092 65.1519 98.5083 65.0986 98.63C65.0469 98.75 65.0219 98.8742 65.0236 99.0025ZM67.5085 100.5V97.915H67.956V98.29C67.9976 98.2183 68.0551 98.1508 68.1285 98.0875C68.2035 98.0242 68.2935 97.9733 68.3985 97.935C68.5051 97.8967 68.6276 97.8775 68.766 97.8775C68.9293 97.8775 69.0793 97.91 69.216 97.975C69.3543 98.04 69.4643 98.1417 69.546 98.28C69.6293 98.4167 69.671 98.5933 69.671 98.81V100.5H69.2085V98.855C69.2085 98.6533 69.1551 98.5042 69.0485 98.4075C68.9435 98.3092 68.8068 98.26 68.6385 98.26C68.5218 98.26 68.4126 98.2792 68.311 98.3175C68.2093 98.3542 68.1268 98.4108 68.0635 98.4875C68.0001 98.5625 67.9685 98.6575 67.9685 98.7725V100.5H67.5085ZM71.5466 101.305V97.915H72.0066L72.0116 98.365C72.0416 98.3117 72.0799 98.2558 72.1266 98.1975C72.1749 98.1392 72.2332 98.085 72.3016 98.035C72.3716 97.985 72.4524 97.9442 72.5441 97.9125C72.6374 97.8808 72.7432 97.865 72.8616 97.865C73.0682 97.865 73.2499 97.9125 73.4066 98.0075C73.5649 98.1008 73.6882 98.2442 73.7766 98.4375C73.8649 98.6308 73.9091 98.8758 73.9091 99.1725C73.9091 99.4692 73.8657 99.72 73.7791 99.925C73.6941 100.128 73.5707 100.283 73.4091 100.39C73.2474 100.497 73.0524 100.55 72.8241 100.55C72.7091 100.55 72.6066 100.533 72.5166 100.5C72.4282 100.468 72.3507 100.427 72.2841 100.375C72.2191 100.322 72.1641 100.265 72.1191 100.205C72.0757 100.145 72.0399 100.087 72.0116 100.032V101.305H71.5466ZM72.7366 100.19C72.9499 100.19 73.1241 100.109 73.2591 99.9475C73.3941 99.7842 73.4616 99.5308 73.4616 99.1875C73.4616 98.8925 73.3999 98.6583 73.2766 98.485C73.1532 98.3117 72.9732 98.225 72.7366 98.225C72.4966 98.225 72.3149 98.3142 72.1916 98.4925C72.0682 98.6692 72.0066 98.9008 72.0066 99.1875C72.0066 99.3725 72.0341 99.5408 72.0891 99.6925C72.1441 99.8442 72.2257 99.965 72.3341 100.055C72.4424 100.145 72.5766 100.19 72.7366 100.19ZM74.5153 100.5V97.915H74.9553V98.4125C74.9986 98.2892 75.0595 98.1875 75.1378 98.1075C75.2161 98.0258 75.3053 97.965 75.4053 97.925C75.507 97.885 75.612 97.865 75.7203 97.865C75.7586 97.865 75.7961 97.8675 75.8328 97.8725C75.8695 97.8775 75.8978 97.8858 75.9178 97.8975V98.345C75.8928 98.3333 75.8603 98.3258 75.8203 98.3225C75.782 98.3175 75.7495 98.315 75.7228 98.315C75.6195 98.3083 75.5228 98.315 75.4328 98.335C75.3428 98.3533 75.2636 98.3858 75.1953 98.4325C75.127 98.4792 75.0728 98.5408 75.0328 98.6175C74.9945 98.6925 74.9753 98.7842 74.9753 98.8925V100.5H74.5153ZM77.4276 100.55C77.1892 100.55 76.9809 100.499 76.8026 100.397C76.6242 100.294 76.4859 100.143 76.3876 99.945C76.2892 99.7467 76.2401 99.5042 76.2401 99.2175C76.2401 98.9475 76.2859 98.7108 76.3776 98.5075C76.4692 98.3042 76.6034 98.1467 76.7801 98.035C76.9584 97.9217 77.1742 97.865 77.4276 97.865C77.6659 97.865 77.8726 97.9175 78.0476 98.0225C78.2242 98.1258 78.3609 98.2783 78.4576 98.48C78.5542 98.6817 78.6026 98.9275 78.6026 99.2175C78.6026 99.4808 78.5576 99.7125 78.4676 99.9125C78.3792 100.112 78.2476 100.269 78.0726 100.382C77.8992 100.494 77.6842 100.55 77.4276 100.55ZM77.4276 100.185C77.5826 100.185 77.7134 100.146 77.8201 100.067C77.9267 99.9892 78.0076 99.8767 78.0626 99.73C78.1176 99.5833 78.1451 99.4092 78.1451 99.2075C78.1451 99.0225 78.1209 98.8567 78.0726 98.71C78.0242 98.5617 77.9467 98.4442 77.8401 98.3575C77.7351 98.2708 77.5976 98.2275 77.4276 98.2275C77.2709 98.2275 77.1384 98.2667 77.0301 98.345C76.9217 98.4217 76.8392 98.5333 76.7826 98.68C76.7276 98.8267 76.7001 99.0025 76.7001 99.2075C76.7001 99.3892 76.7251 99.5542 76.7751 99.7025C76.8251 99.8508 76.9034 99.9683 77.0101 100.055C77.1167 100.142 77.2559 100.185 77.4276 100.185ZM80.2377 97.865C80.4227 97.865 80.5894 97.9008 80.7377 97.9725C80.886 98.0425 81.0069 98.1425 81.1002 98.2725C81.1952 98.4025 81.2544 98.5558 81.2777 98.7325H80.8677C80.8527 98.6425 80.8177 98.56 80.7627 98.485C80.7094 98.41 80.6385 98.35 80.5502 98.305C80.4619 98.26 80.3585 98.2375 80.2402 98.2375C80.0185 98.2375 79.8385 98.3175 79.7002 98.4775C79.5619 98.6375 79.4927 98.8825 79.4927 99.2125C79.4927 99.5108 79.556 99.75 79.6827 99.93C79.811 100.108 79.9994 100.197 80.2477 100.197C80.366 100.197 80.4685 100.175 80.5552 100.13C80.6435 100.083 80.7144 100.022 80.7677 99.9475C80.821 99.8708 80.8552 99.7892 80.8702 99.7025H81.2727C81.251 99.8758 81.1927 100.026 81.0977 100.152C81.0027 100.279 80.881 100.377 80.7327 100.447C80.586 100.516 80.421 100.55 80.2377 100.55C80.006 100.55 79.8002 100.499 79.6202 100.397C79.4419 100.296 79.3019 100.146 79.2002 99.9475C79.0985 99.7492 79.0477 99.5058 79.0477 99.2175C79.0477 98.9475 79.0935 98.7117 79.1852 98.51C79.2785 98.3067 79.4135 98.1483 79.5902 98.035C79.7685 97.9217 79.9844 97.865 80.2377 97.865ZM82.233 99.315C82.233 99.4783 82.2597 99.6267 82.313 99.76C82.368 99.8917 82.4505 99.9967 82.5605 100.075C82.6722 100.153 82.8113 100.192 82.978 100.192C83.143 100.192 83.2847 100.154 83.403 100.077C83.523 100.001 83.5997 99.89 83.633 99.745H84.0705C84.0388 99.92 83.9688 100.067 83.8605 100.188C83.7522 100.307 83.6213 100.398 83.468 100.46C83.3147 100.52 83.1547 100.55 82.988 100.55C82.7463 100.55 82.5338 100.498 82.3505 100.392C82.1672 100.287 82.0238 100.137 81.9205 99.94C81.8172 99.7433 81.7655 99.5075 81.7655 99.2325C81.7655 98.9608 81.8122 98.7225 81.9055 98.5175C81.9988 98.3125 82.1338 98.1525 82.3105 98.0375C82.4888 97.9225 82.703 97.865 82.953 97.865C83.1963 97.865 83.4022 97.9175 83.5705 98.0225C83.7388 98.1275 83.8663 98.2758 83.953 98.4675C84.0413 98.6575 84.0855 98.8833 84.0855 99.145V99.315H82.233ZM82.2355 99.0025H83.6405C83.6405 98.8542 83.6155 98.7208 83.5655 98.6025C83.5155 98.4825 83.4388 98.3883 83.3355 98.32C83.2338 98.25 83.1055 98.215 82.9505 98.215C82.7888 98.215 82.6547 98.2542 82.548 98.3325C82.443 98.4092 82.3638 98.5083 82.3105 98.63C82.2588 98.75 82.2338 98.8742 82.2355 99.0025ZM85.6232 100.55C85.4432 100.55 85.2757 100.523 85.1207 100.467C84.9674 100.411 84.8399 100.323 84.7382 100.205C84.6366 100.085 84.5724 99.9325 84.5457 99.7475H84.9657C84.9891 99.8492 85.0307 99.9342 85.0907 100.002C85.1524 100.069 85.2291 100.12 85.3207 100.155C85.4124 100.188 85.5124 100.205 85.6207 100.205C85.7941 100.205 85.9341 100.172 86.0407 100.107C86.1474 100.042 86.2007 99.9425 86.2007 99.8075C86.2007 99.7125 86.1724 99.6367 86.1157 99.58C86.0607 99.5217 85.9749 99.4792 85.8582 99.4525L85.3232 99.32C85.1149 99.27 84.9482 99.1917 84.8232 99.085C84.6982 98.9783 84.6357 98.8292 84.6357 98.6375C84.6341 98.4858 84.6699 98.3525 84.7432 98.2375C84.8166 98.1225 84.9266 98.0317 85.0732 97.965C85.2199 97.8983 85.4024 97.865 85.6207 97.865C85.9007 97.865 86.1266 97.9283 86.2982 98.055C86.4716 98.18 86.5616 98.3642 86.5682 98.6075H86.1607C86.1441 98.4842 86.0882 98.3867 85.9932 98.315C85.8999 98.2417 85.7741 98.205 85.6157 98.205C85.4507 98.205 85.3166 98.2383 85.2132 98.305C85.1099 98.37 85.0582 98.4717 85.0582 98.61C85.0582 98.7017 85.0949 98.7742 85.1682 98.8275C85.2416 98.8792 85.3499 98.9225 85.4932 98.9575L86.0107 99.0875C86.1307 99.1192 86.2291 99.1608 86.3057 99.2125C86.3841 99.2642 86.4457 99.3217 86.4907 99.385C86.5374 99.4483 86.5699 99.515 86.5882 99.585C86.6082 99.6533 86.6182 99.7192 86.6182 99.7825C86.6182 99.9408 86.5782 100.077 86.4982 100.192C86.4199 100.306 86.3066 100.394 86.1582 100.457C86.0116 100.519 85.8332 100.55 85.6232 100.55ZM88.1428 100.55C87.9628 100.55 87.7953 100.523 87.6403 100.467C87.4869 100.411 87.3594 100.323 87.2578 100.205C87.1561 100.085 87.0919 99.9325 87.0653 99.7475H87.4853C87.5086 99.8492 87.5503 99.9342 87.6103 100.002C87.6719 100.069 87.7486 100.12 87.8403 100.155C87.9319 100.188 88.0319 100.205 88.1403 100.205C88.3136 100.205 88.4536 100.172 88.5603 100.107C88.6669 100.042 88.7203 99.9425 88.7203 99.8075C88.7203 99.7125 88.6919 99.6367 88.6353 99.58C88.5803 99.5217 88.4944 99.4792 88.3778 99.4525L87.8428 99.32C87.6344 99.27 87.4678 99.1917 87.3428 99.085C87.2178 98.9783 87.1553 98.8292 87.1553 98.6375C87.1536 98.4858 87.1894 98.3525 87.2628 98.2375C87.3361 98.1225 87.4461 98.0317 87.5928 97.965C87.7394 97.8983 87.9219 97.865 88.1403 97.865C88.4203 97.865 88.6461 97.9283 88.8178 98.055C88.9911 98.18 89.0811 98.3642 89.0878 98.6075H88.6803C88.6636 98.4842 88.6078 98.3867 88.5128 98.315C88.4194 98.2417 88.2936 98.205 88.1353 98.205C87.9703 98.205 87.8361 98.2383 87.7328 98.305C87.6294 98.37 87.5778 98.4717 87.5778 98.61C87.5778 98.7017 87.6144 98.7742 87.6878 98.8275C87.7611 98.8792 87.8694 98.9225 88.0128 98.9575L88.5303 99.0875C88.6503 99.1192 88.7486 99.1608 88.8253 99.2125C88.9036 99.2642 88.9653 99.3217 89.0103 99.385C89.0569 99.4483 89.0894 99.515 89.1078 99.585C89.1278 99.6533 89.1378 99.7192 89.1378 99.7825C89.1378 99.9408 89.0978 100.077 89.0178 100.192C88.9394 100.306 88.8261 100.394 88.6778 100.457C88.5311 100.519 88.3528 100.55 88.1428 100.55ZM90.1139 99.315C90.1139 99.4783 90.1405 99.6267 90.1939 99.76C90.2489 99.8917 90.3314 99.9967 90.4414 100.075C90.553 100.153 90.6922 100.192 90.8589 100.192C91.0239 100.192 91.1655 100.154 91.2839 100.077C91.4039 100.001 91.4805 99.89 91.5139 99.745H91.9514C91.9197 99.92 91.8497 100.067 91.7414 100.188C91.633 100.307 91.5022 100.398 91.3489 100.46C91.1955 100.52 91.0355 100.55 90.8689 100.55C90.6272 100.55 90.4147 100.498 90.2314 100.392C90.048 100.287 89.9047 100.137 89.8014 99.94C89.698 99.7433 89.6464 99.5075 89.6464 99.2325C89.6464 98.9608 89.693 98.7225 89.7864 98.5175C89.8797 98.3125 90.0147 98.1525 90.1914 98.0375C90.3697 97.9225 90.5839 97.865 90.8339 97.865C91.0772 97.865 91.283 97.9175 91.4514 98.0225C91.6197 98.1275 91.7472 98.2758 91.8339 98.4675C91.9222 98.6575 91.9664 98.8833 91.9664 99.145V99.315H90.1139ZM90.1164 99.0025H91.5214C91.5214 98.8542 91.4964 98.7208 91.4464 98.6025C91.3964 98.4825 91.3197 98.3883 91.2164 98.32C91.1147 98.25 90.9864 98.215 90.8314 98.215C90.6697 98.215 90.5355 98.2542 90.4289 98.3325C90.3239 98.4092 90.2447 98.5083 90.1914 98.63C90.1397 98.75 90.1147 98.8742 90.1164 99.0025ZM93.5338 100.55C93.1988 100.55 92.9329 100.435 92.7363 100.205C92.5396 99.975 92.4413 99.6392 92.4413 99.1975C92.4413 98.9292 92.4804 98.695 92.5588 98.495C92.6388 98.295 92.7571 98.14 92.9138 98.03C93.0704 97.92 93.2654 97.865 93.4988 97.865C93.6221 97.865 93.7313 97.8808 93.8263 97.9125C93.9229 97.9442 94.0063 97.9842 94.0763 98.0325C94.1463 98.0808 94.2029 98.1308 94.2463 98.1825C94.2913 98.2342 94.3246 98.2817 94.3463 98.325V96.785H94.8113V100.5H94.4588L94.4088 99.97C94.3921 100.02 94.3654 100.078 94.3288 100.145C94.2921 100.21 94.2404 100.274 94.1738 100.337C94.1071 100.399 94.0213 100.45 93.9163 100.49C93.8129 100.53 93.6854 100.55 93.5338 100.55ZM93.6163 100.195C93.8779 100.195 94.0646 100.116 94.1763 99.9575C94.2896 99.7975 94.3463 99.5367 94.3463 99.175C94.3446 98.9733 94.3188 98.8017 94.2688 98.66C94.2204 98.5183 94.1438 98.4108 94.0388 98.3375C93.9354 98.2625 93.7979 98.225 93.6263 98.225C93.4129 98.225 93.2396 98.3008 93.1063 98.4525C92.9729 98.6042 92.9063 98.845 92.9063 99.175C92.9063 99.4983 92.9663 99.7492 93.0863 99.9275C93.2079 100.106 93.3846 100.195 93.6163 100.195ZM95.4674 100.5V99.91H96.0174V100.5H95.4674ZM18.115 104.31V103.885H20.85V104.31H19.7475V107.5H19.2825V104.31H18.115ZM21.3513 107.5V103.785H21.8013V105.295C21.8446 105.223 21.9029 105.157 21.9763 105.095C22.0496 105.032 22.1388 104.981 22.2438 104.942C22.3488 104.902 22.4704 104.882 22.6088 104.882C22.7771 104.882 22.9296 104.914 23.0663 104.977C23.2029 105.039 23.3113 105.127 23.3913 105.242C23.4713 105.357 23.5113 105.494 23.5113 105.652V107.5H23.0488V105.745C23.0488 105.59 22.9954 105.471 22.8888 105.387C22.7838 105.302 22.6463 105.26 22.4763 105.26C22.3613 105.26 22.2529 105.279 22.1513 105.317C22.0496 105.354 21.9671 105.411 21.9038 105.487C21.8421 105.562 21.8113 105.658 21.8113 105.775V107.5H21.3513ZM24.5621 106.315C24.5621 106.478 24.5888 106.627 24.6421 106.76C24.6971 106.892 24.7796 106.997 24.8896 107.075C25.0013 107.153 25.1404 107.192 25.3071 107.192C25.4721 107.192 25.6138 107.154 25.7321 107.077C25.8521 107.001 25.9288 106.89 25.9621 106.745H26.3996C26.3679 106.92 26.2979 107.067 26.1896 107.188C26.0813 107.307 25.9504 107.398 25.7971 107.46C25.6438 107.52 25.4838 107.55 25.3171 107.55C25.0754 107.55 24.8629 107.498 24.6796 107.392C24.4963 107.287 24.3529 107.137 24.2496 106.94C24.1463 106.743 24.0946 106.507 24.0946 106.232C24.0946 105.961 24.1413 105.722 24.2346 105.517C24.3279 105.312 24.4629 105.152 24.6396 105.037C24.8179 104.922 25.0321 104.865 25.2821 104.865C25.5254 104.865 25.7313 104.917 25.8996 105.022C26.0679 105.127 26.1954 105.276 26.2821 105.467C26.3704 105.657 26.4146 105.883 26.4146 106.145V106.315H24.5621ZM24.5646 106.002H25.9696C25.9696 105.854 25.9446 105.721 25.8946 105.602C25.8446 105.482 25.7679 105.388 25.6646 105.32C25.5629 105.25 25.4346 105.215 25.2796 105.215C25.1179 105.215 24.9838 105.254 24.8771 105.332C24.7721 105.409 24.6929 105.508 24.6396 105.63C24.5879 105.75 24.5629 105.874 24.5646 106.002ZM29.4907 105.252H28.9082V106.86C28.9082 106.952 28.9174 107.019 28.9357 107.062C28.9557 107.104 28.9882 107.131 29.0332 107.142C29.0799 107.154 29.1432 107.16 29.2232 107.16H29.5057V107.47C29.4741 107.482 29.4257 107.492 29.3607 107.5C29.2974 107.508 29.2182 107.513 29.1232 107.513C28.9449 107.513 28.8066 107.488 28.7082 107.44C28.6099 107.392 28.5407 107.32 28.5007 107.225C28.4624 107.13 28.4432 107.013 28.4432 106.875V105.252H28.0232V104.915H28.4557L28.5682 104.162H28.9082V104.912H29.4907V105.252ZM31.1141 107.55C30.8758 107.55 30.6674 107.499 30.4891 107.397C30.3108 107.294 30.1724 107.143 30.0741 106.945C29.9758 106.747 29.9266 106.504 29.9266 106.217C29.9266 105.947 29.9724 105.711 30.0641 105.507C30.1558 105.304 30.2899 105.147 30.4666 105.035C30.6449 104.922 30.8608 104.865 31.1141 104.865C31.3524 104.865 31.5591 104.917 31.7341 105.022C31.9108 105.126 32.0474 105.278 32.1441 105.48C32.2408 105.682 32.2891 105.927 32.2891 106.217C32.2891 106.481 32.2441 106.712 32.1541 106.912C32.0658 107.112 31.9341 107.269 31.7591 107.382C31.5858 107.494 31.3708 107.55 31.1141 107.55ZM31.1141 107.185C31.2691 107.185 31.3999 107.146 31.5066 107.067C31.6133 106.989 31.6941 106.877 31.7491 106.73C31.8041 106.583 31.8316 106.409 31.8316 106.207C31.8316 106.022 31.8074 105.857 31.7591 105.71C31.7108 105.562 31.6333 105.444 31.5266 105.357C31.4216 105.271 31.2841 105.227 31.1141 105.227C30.9574 105.227 30.8249 105.267 30.7166 105.345C30.6083 105.422 30.5258 105.533 30.4691 105.68C30.4141 105.827 30.3866 106.002 30.3866 106.207C30.3866 106.389 30.4116 106.554 30.4616 106.702C30.5116 106.851 30.5899 106.968 30.6966 107.055C30.8033 107.142 30.9424 107.185 31.1141 107.185ZM34.1245 105.252H33.542V106.86C33.542 106.952 33.5512 107.019 33.5695 107.062C33.5895 107.104 33.622 107.131 33.667 107.142C33.7137 107.154 33.777 107.16 33.857 107.16H34.1395V107.47C34.1079 107.482 34.0595 107.492 33.9945 107.5C33.9312 107.508 33.852 107.513 33.757 107.513C33.5787 107.513 33.4404 107.488 33.342 107.44C33.2437 107.392 33.1745 107.32 33.1345 107.225C33.0962 107.13 33.077 107.013 33.077 106.875V105.252H32.657V104.915H33.0895L33.202 104.162H33.542V104.912H34.1245V105.252ZM35.4891 107.55C35.3224 107.55 35.1749 107.521 35.0466 107.462C34.9183 107.402 34.8174 107.317 34.7441 107.205C34.6724 107.093 34.6366 106.958 34.6366 106.8C34.6366 106.513 34.7366 106.3 34.9366 106.16C35.1366 106.02 35.4574 105.945 35.8991 105.935L36.3616 105.922V105.72C36.3616 105.562 36.3141 105.437 36.2191 105.345C36.1241 105.252 35.9766 105.205 35.7766 105.205C35.6283 105.207 35.4974 105.242 35.3841 105.31C35.2724 105.378 35.1999 105.49 35.1666 105.645H34.7591C34.7691 105.477 34.8166 105.335 34.9016 105.22C34.9866 105.103 35.1049 105.015 35.2566 104.955C35.4099 104.895 35.5908 104.865 35.7991 104.865C36.0241 104.865 36.2108 104.897 36.3591 104.96C36.5091 105.023 36.6208 105.117 36.6941 105.24C36.7691 105.363 36.8066 105.515 36.8066 105.695V107.5H36.4116L36.3791 107.015C36.2791 107.217 36.1516 107.357 35.9966 107.435C35.8433 107.512 35.6741 107.55 35.4891 107.55ZM35.6291 107.217C35.7158 107.217 35.8016 107.202 35.8866 107.17C35.9733 107.138 36.0524 107.096 36.1241 107.042C36.1958 106.987 36.2524 106.927 36.2941 106.86C36.3374 106.792 36.3599 106.722 36.3616 106.65V106.207L35.9766 106.215C35.7799 106.218 35.6149 106.238 35.4816 106.275C35.3499 106.312 35.2508 106.369 35.1841 106.447C35.1191 106.526 35.0866 106.628 35.0866 106.755C35.0866 106.9 35.1366 107.013 35.2366 107.095C35.3383 107.177 35.4691 107.217 35.6291 107.217ZM38.2489 107.533C38.1089 107.533 37.9955 107.513 37.9089 107.475C37.8239 107.437 37.758 107.385 37.7114 107.32C37.6664 107.255 37.6355 107.181 37.6189 107.097C37.6039 107.012 37.5964 106.925 37.5964 106.835V103.785H38.0514V106.79C38.0514 106.92 38.0764 107.017 38.1264 107.082C38.178 107.147 38.2497 107.183 38.3414 107.19L38.4814 107.192V107.492C38.443 107.504 38.403 107.513 38.3614 107.52C38.3197 107.528 38.2822 107.533 38.2489 107.533ZM40.953 107.55C40.7863 107.55 40.6388 107.521 40.5105 107.462C40.3821 107.402 40.2813 107.317 40.208 107.205C40.1363 107.093 40.1005 106.958 40.1005 106.8C40.1005 106.513 40.2005 106.3 40.4005 106.16C40.6005 106.02 40.9213 105.945 41.363 105.935L41.8255 105.922V105.72C41.8255 105.562 41.778 105.437 41.683 105.345C41.588 105.252 41.4405 105.205 41.2405 105.205C41.0921 105.207 40.9613 105.242 40.848 105.31C40.7363 105.378 40.6638 105.49 40.6305 105.645H40.223C40.233 105.477 40.2805 105.335 40.3655 105.22C40.4505 105.103 40.5688 105.015 40.7205 104.955C40.8738 104.895 41.0546 104.865 41.263 104.865C41.488 104.865 41.6746 104.897 41.823 104.96C41.973 105.023 42.0846 105.117 42.158 105.24C42.233 105.363 42.2705 105.515 42.2705 105.695V107.5H41.8755L41.843 107.015C41.743 107.217 41.6155 107.357 41.4605 107.435C41.3071 107.512 41.138 107.55 40.953 107.55ZM41.093 107.217C41.1796 107.217 41.2655 107.202 41.3505 107.17C41.4371 107.138 41.5163 107.096 41.588 107.042C41.6596 106.987 41.7163 106.927 41.758 106.86C41.8013 106.792 41.8238 106.722 41.8255 106.65V106.207L41.4405 106.215C41.2438 106.218 41.0788 106.238 40.9455 106.275C40.8138 106.312 40.7146 106.369 40.648 106.447C40.583 106.526 40.5505 106.628 40.5505 106.755C40.5505 106.9 40.6005 107.013 40.7005 107.095C40.8021 107.177 40.933 107.217 41.093 107.217ZM43.0602 107.5V104.915H43.5052V105.29C43.5769 105.177 43.6752 105.077 43.8002 104.992C43.9252 104.907 44.0877 104.865 44.2877 104.865C44.3811 104.865 44.4761 104.881 44.5727 104.912C44.6711 104.944 44.7611 104.992 44.8427 105.055C44.9244 105.118 44.9877 105.196 45.0327 105.287C45.1127 105.161 45.2211 105.059 45.3577 104.982C45.4944 104.904 45.6486 104.865 45.8202 104.865C45.9102 104.865 46.0044 104.879 46.1027 104.907C46.2011 104.934 46.2919 104.982 46.3752 105.052C46.4602 105.121 46.5294 105.217 46.5827 105.34C46.6361 105.462 46.6627 105.618 46.6627 105.81V107.5H46.1977V105.855C46.1977 105.698 46.1727 105.577 46.1227 105.492C46.0727 105.406 46.0069 105.345 45.9252 105.31C45.8452 105.275 45.7594 105.257 45.6677 105.257C45.5877 105.257 45.5027 105.273 45.4127 105.305C45.3227 105.337 45.2461 105.39 45.1827 105.465C45.1194 105.54 45.0877 105.642 45.0877 105.772V107.5H44.6277V105.72C44.6277 105.618 44.6002 105.533 44.5452 105.465C44.4919 105.397 44.4244 105.345 44.3427 105.31C44.2627 105.275 44.1827 105.257 44.1027 105.257C44.0144 105.257 43.9252 105.275 43.8352 105.31C43.7469 105.345 43.6719 105.401 43.6102 105.477C43.5502 105.552 43.5202 105.651 43.5202 105.772V107.5H43.0602ZM48.4139 107.55C48.1756 107.55 47.9672 107.499 47.7889 107.397C47.6106 107.294 47.4722 107.143 47.3739 106.945C47.2756 106.747 47.2264 106.504 47.2264 106.217C47.2264 105.947 47.2722 105.711 47.3639 105.507C47.4556 105.304 47.5897 105.147 47.7664 105.035C47.9447 104.922 48.1606 104.865 48.4139 104.865C48.6522 104.865 48.8589 104.917 49.0339 105.022C49.2106 105.126 49.3472 105.278 49.4439 105.48C49.5406 105.682 49.5889 105.927 49.5889 106.217C49.5889 106.481 49.5439 106.712 49.4539 106.912C49.3656 107.112 49.2339 107.269 49.0589 107.382C48.8856 107.494 48.6706 107.55 48.4139 107.55ZM48.4139 107.185C48.5689 107.185 48.6997 107.146 48.8064 107.067C48.9131 106.989 48.9939 106.877 49.0489 106.73C49.1039 106.583 49.1314 106.409 49.1314 106.207C49.1314 106.022 49.1072 105.857 49.0589 105.71C49.0106 105.562 48.9331 105.444 48.8264 105.357C48.7214 105.271 48.5839 105.227 48.4139 105.227C48.2572 105.227 48.1247 105.267 48.0164 105.345C47.9081 105.422 47.8256 105.533 47.7689 105.68C47.7139 105.827 47.6864 106.002 47.6864 106.207C47.6864 106.389 47.7114 106.554 47.7614 106.702C47.8114 106.851 47.8897 106.968 47.9964 107.055C48.1031 107.142 48.2422 107.185 48.4139 107.185ZM51.105 107.55C50.97 107.548 50.8425 107.529 50.7225 107.492C50.6041 107.454 50.4991 107.398 50.4075 107.325C50.3158 107.252 50.2433 107.161 50.19 107.052C50.1383 106.942 50.1125 106.815 50.1125 106.67V104.915H50.575V106.622C50.575 106.791 50.6266 106.927 50.73 107.032C50.835 107.137 50.9925 107.19 51.2025 107.19C51.3925 107.19 51.545 107.141 51.66 107.042C51.7766 106.942 51.835 106.794 51.835 106.597V104.915H52.295V107.5H51.9275L51.88 107.005C51.8483 107.135 51.7941 107.24 51.7175 107.32C51.6425 107.4 51.5516 107.459 51.445 107.497C51.34 107.534 51.2266 107.552 51.105 107.55ZM53.0456 107.5V104.915H53.4931V105.29C53.5348 105.218 53.5923 105.151 53.6656 105.087C53.7406 105.024 53.8306 104.973 53.9356 104.935C54.0423 104.897 54.1648 104.877 54.3031 104.877C54.4664 104.877 54.6164 104.91 54.7531 104.975C54.8914 105.04 55.0014 105.142 55.0831 105.28C55.1664 105.417 55.2081 105.593 55.2081 105.81V107.5H54.7456V105.855C54.7456 105.653 54.6923 105.504 54.5856 105.407C54.4806 105.309 54.3439 105.26 54.1756 105.26C54.0589 105.26 53.9498 105.279 53.8481 105.317C53.7464 105.354 53.6639 105.411 53.6006 105.487C53.5373 105.562 53.5056 105.657 53.5056 105.772V107.5H53.0456ZM57.1226 105.252H56.5401V106.86C56.5401 106.952 56.5492 107.019 56.5676 107.062C56.5876 107.104 56.6201 107.131 56.6651 107.142C56.7117 107.154 56.7751 107.16 56.8551 107.16H57.1376V107.47C57.1059 107.482 57.0576 107.492 56.9926 107.5C56.9292 107.508 56.8501 107.513 56.7551 107.513C56.5767 107.513 56.4384 107.488 56.3401 107.44C56.2417 107.392 56.1726 107.32 56.1326 107.225C56.0942 107.13 56.0751 107.013 56.0751 106.875V105.252H55.6551V104.915H56.0876L56.2001 104.162H56.5401V104.912H57.1226V105.252ZM59.8082 107.55C59.4732 107.55 59.2073 107.435 59.0107 107.205C58.814 106.975 58.7157 106.639 58.7157 106.197C58.7157 105.929 58.7548 105.695 58.8332 105.495C58.9132 105.295 59.0315 105.14 59.1882 105.03C59.3448 104.92 59.5398 104.865 59.7732 104.865C59.8965 104.865 60.0057 104.881 60.1007 104.912C60.1973 104.944 60.2807 104.984 60.3507 105.032C60.4207 105.081 60.4773 105.131 60.5207 105.182C60.5657 105.234 60.599 105.282 60.6207 105.325V103.785H61.0857V107.5H60.7332L60.6832 106.97C60.6665 107.02 60.6398 107.078 60.6032 107.145C60.5665 107.21 60.5148 107.274 60.4482 107.337C60.3815 107.399 60.2957 107.45 60.1907 107.49C60.0873 107.53 59.9598 107.55 59.8082 107.55ZM59.8907 107.195C60.1523 107.195 60.339 107.116 60.4507 106.957C60.564 106.797 60.6207 106.537 60.6207 106.175C60.619 105.973 60.5932 105.802 60.5432 105.66C60.4948 105.518 60.4182 105.411 60.3132 105.337C60.2098 105.262 60.0723 105.225 59.9007 105.225C59.6873 105.225 59.514 105.301 59.3807 105.452C59.2473 105.604 59.1807 105.845 59.1807 106.175C59.1807 106.498 59.2407 106.749 59.3607 106.927C59.4823 107.106 59.659 107.195 59.8907 107.195ZM62.1793 106.315C62.1793 106.478 62.206 106.627 62.2593 106.76C62.3143 106.892 62.3968 106.997 62.5068 107.075C62.6185 107.153 62.7576 107.192 62.9243 107.192C63.0893 107.192 63.231 107.154 63.3493 107.077C63.4693 107.001 63.546 106.89 63.5793 106.745H64.0168C63.9851 106.92 63.9151 107.067 63.8068 107.188C63.6985 107.307 63.5676 107.398 63.4143 107.46C63.261 107.52 63.101 107.55 62.9343 107.55C62.6926 107.55 62.4801 107.498 62.2968 107.392C62.1135 107.287 61.9701 107.137 61.8668 106.94C61.7635 106.743 61.7118 106.507 61.7118 106.232C61.7118 105.961 61.7585 105.722 61.8518 105.517C61.9451 105.312 62.0801 105.152 62.2568 105.037C62.4351 104.922 62.6493 104.865 62.8993 104.865C63.1426 104.865 63.3485 104.917 63.5168 105.022C63.6851 105.127 63.8126 105.276 63.8993 105.467C63.9876 105.657 64.0318 105.883 64.0318 106.145V106.315H62.1793ZM62.1818 106.002H63.5868C63.5868 105.854 63.5618 105.721 63.5118 105.602C63.4618 105.482 63.3851 105.388 63.2818 105.32C63.1801 105.25 63.0518 105.215 62.8968 105.215C62.7351 105.215 62.601 105.254 62.4943 105.332C62.3893 105.409 62.3101 105.508 62.2568 105.63C62.2051 105.75 62.1801 105.874 62.1818 106.002ZM65.5992 107.55C65.2642 107.55 64.9983 107.435 64.8017 107.205C64.605 106.975 64.5067 106.639 64.5067 106.197C64.5067 105.929 64.5458 105.695 64.6242 105.495C64.7042 105.295 64.8225 105.14 64.9792 105.03C65.1358 104.92 65.3308 104.865 65.5642 104.865C65.6875 104.865 65.7967 104.881 65.8917 104.912C65.9883 104.944 66.0717 104.984 66.1417 105.032C66.2117 105.081 66.2683 105.131 66.3117 105.182C66.3567 105.234 66.39 105.282 66.4117 105.325V103.785H66.8767V107.5H66.5242L66.4742 106.97C66.4575 107.02 66.4308 107.078 66.3942 107.145C66.3575 107.21 66.3058 107.274 66.2392 107.337C66.1725 107.399 66.0867 107.45 65.9817 107.49C65.8783 107.53 65.7508 107.55 65.5992 107.55ZM65.6817 107.195C65.9433 107.195 66.13 107.116 66.2417 106.957C66.355 106.797 66.4117 106.537 66.4117 106.175C66.41 105.973 66.3842 105.802 66.3342 105.66C66.2858 105.518 66.2092 105.411 66.1042 105.337C66.0008 105.262 65.8633 105.225 65.6917 105.225C65.4783 105.225 65.305 105.301 65.1717 105.452C65.0383 105.604 64.9717 105.845 64.9717 106.175C64.9717 106.498 65.0317 106.749 65.1517 106.927C65.2733 107.106 65.45 107.195 65.6817 107.195ZM68.5903 107.55C68.4553 107.548 68.3278 107.529 68.2078 107.492C68.0895 107.454 67.9845 107.398 67.8928 107.325C67.8011 107.252 67.7286 107.161 67.6753 107.052C67.6236 106.942 67.5978 106.815 67.5978 106.67V104.915H68.0603V106.622C68.0603 106.791 68.112 106.927 68.2153 107.032C68.3203 107.137 68.4778 107.19 68.6878 107.19C68.8778 107.19 69.0303 107.141 69.1453 107.042C69.262 106.942 69.3203 106.794 69.3203 106.597V104.915H69.7803V107.5H69.4128L69.3653 107.005C69.3336 107.135 69.2795 107.24 69.2028 107.32C69.1278 107.4 69.037 107.459 68.9303 107.497C68.8253 107.534 68.712 107.552 68.5903 107.55ZM71.5316 104.865C71.7166 104.865 71.8833 104.901 72.0316 104.972C72.18 105.042 72.3008 105.142 72.3941 105.272C72.4891 105.402 72.5483 105.556 72.5716 105.732H72.1616C72.1466 105.642 72.1116 105.56 72.0566 105.485C72.0033 105.41 71.9325 105.35 71.8441 105.305C71.7558 105.26 71.6525 105.237 71.5341 105.237C71.3125 105.237 71.1325 105.317 70.9941 105.477C70.8558 105.637 70.7866 105.882 70.7866 106.212C70.7866 106.511 70.85 106.75 70.9766 106.93C71.105 107.108 71.2933 107.197 71.5416 107.197C71.66 107.197 71.7625 107.175 71.8491 107.13C71.9375 107.083 72.0083 107.022 72.0616 106.947C72.115 106.871 72.1491 106.789 72.1641 106.702H72.5666C72.545 106.876 72.4866 107.026 72.3916 107.152C72.2966 107.279 72.175 107.377 72.0266 107.447C71.88 107.516 71.715 107.55 71.5316 107.55C71.3 107.55 71.0941 107.499 70.9141 107.397C70.7358 107.296 70.5958 107.146 70.4941 106.947C70.3925 106.749 70.3416 106.506 70.3416 106.217C70.3416 105.947 70.3875 105.712 70.4791 105.51C70.5725 105.307 70.7075 105.148 70.8841 105.035C71.0625 104.922 71.2783 104.865 71.5316 104.865ZM74.4273 105.252H73.8448V106.86C73.8448 106.952 73.8539 107.019 73.8723 107.062C73.8923 107.104 73.9248 107.131 73.9698 107.142C74.0164 107.154 74.0798 107.16 74.1598 107.16H74.4423V107.47C74.4106 107.482 74.3623 107.492 74.2973 107.5C74.2339 107.508 74.1548 107.513 74.0598 107.513C73.8814 107.513 73.7431 107.488 73.6448 107.44C73.5464 107.392 73.4773 107.32 73.4373 107.225C73.3989 107.13 73.3798 107.013 73.3798 106.875V105.252H72.9598V104.915H73.3923L73.5048 104.162H73.8448V104.912H74.4273V105.252ZM75.3531 106.315C75.3531 106.478 75.3798 106.627 75.4331 106.76C75.4881 106.892 75.5706 106.997 75.6806 107.075C75.7923 107.153 75.9315 107.192 76.0981 107.192C76.2631 107.192 76.4048 107.154 76.5231 107.077C76.6431 107.001 76.7198 106.89 76.7531 106.745H77.1906C77.159 106.92 77.089 107.067 76.9806 107.188C76.8723 107.307 76.7415 107.398 76.5881 107.46C76.4348 107.52 76.2748 107.55 76.1081 107.55C75.8665 107.55 75.654 107.498 75.4706 107.392C75.2873 107.287 75.144 107.137 75.0406 106.94C74.9373 106.743 74.8856 106.507 74.8856 106.232C74.8856 105.961 74.9323 105.722 75.0256 105.517C75.119 105.312 75.254 105.152 75.4306 105.037C75.609 104.922 75.8231 104.865 76.0731 104.865C76.3165 104.865 76.5223 104.917 76.6906 105.022C76.859 105.127 76.9865 105.276 77.0731 105.467C77.1615 105.657 77.2056 105.883 77.2056 106.145V106.315H75.3531ZM75.3556 106.002H76.7606C76.7606 105.854 76.7356 105.721 76.6856 105.602C76.6356 105.482 76.559 105.388 76.4556 105.32C76.354 105.25 76.2256 105.215 76.0706 105.215C75.909 105.215 75.7748 105.254 75.6681 105.332C75.5631 105.409 75.484 105.508 75.4306 105.63C75.379 105.75 75.354 105.874 75.3556 106.002ZM78.773 107.55C78.438 107.55 78.1722 107.435 77.9755 107.205C77.7788 106.975 77.6805 106.639 77.6805 106.197C77.6805 105.929 77.7197 105.695 77.798 105.495C77.878 105.295 77.9963 105.14 78.153 105.03C78.3097 104.92 78.5047 104.865 78.738 104.865C78.8613 104.865 78.9705 104.881 79.0655 104.912C79.1622 104.944 79.2455 104.984 79.3155 105.032C79.3855 105.081 79.4422 105.131 79.4855 105.182C79.5305 105.234 79.5638 105.282 79.5855 105.325V103.785H80.0505V107.5H79.698L79.648 106.97C79.6313 107.02 79.6047 107.078 79.568 107.145C79.5313 107.21 79.4797 107.274 79.413 107.337C79.3463 107.399 79.2605 107.45 79.1555 107.49C79.0522 107.53 78.9247 107.55 78.773 107.55ZM78.8555 107.195C79.1172 107.195 79.3038 107.116 79.4155 106.957C79.5288 106.797 79.5855 106.537 79.5855 106.175C79.5838 105.973 79.558 105.802 79.508 105.66C79.4597 105.518 79.383 105.411 79.278 105.337C79.1747 105.262 79.0372 105.225 78.8655 105.225C78.6522 105.225 78.4788 105.301 78.3455 105.452C78.2122 105.604 78.1455 105.845 78.1455 106.175C78.1455 106.498 78.2055 106.749 78.3255 106.927C78.4472 107.106 78.6238 107.195 78.8555 107.195ZM83.4265 104.915V105.252H82.799V107.5H82.334V105.252H81.789V104.915H82.334V104.515C82.334 104.31 82.3865 104.154 82.4915 104.047C82.5965 103.939 82.7532 103.885 82.9615 103.885H83.449L83.4515 104.212H83.064C82.959 104.212 82.8873 104.241 82.849 104.297C82.8107 104.354 82.7915 104.44 82.7915 104.555V104.915H83.4265ZM83.9977 107.5V104.915H84.4377V105.412C84.4811 105.289 84.5419 105.187 84.6202 105.107C84.6986 105.026 84.7877 104.965 84.8877 104.925C84.9894 104.885 85.0944 104.865 85.2027 104.865C85.2411 104.865 85.2786 104.867 85.3152 104.873C85.3519 104.877 85.3802 104.886 85.4002 104.897V105.345C85.3752 105.333 85.3427 105.326 85.3027 105.322C85.2644 105.317 85.2319 105.315 85.2052 105.315C85.1019 105.308 85.0052 105.315 84.9152 105.335C84.8252 105.353 84.7461 105.386 84.6777 105.432C84.6094 105.479 84.5552 105.541 84.5152 105.617C84.4769 105.692 84.4577 105.784 84.4577 105.892V107.5H83.9977ZM86.91 107.55C86.6717 107.55 86.4633 107.499 86.285 107.397C86.1067 107.294 85.9683 107.143 85.87 106.945C85.7717 106.747 85.7225 106.504 85.7225 106.217C85.7225 105.947 85.7683 105.711 85.86 105.507C85.9517 105.304 86.0858 105.147 86.2625 105.035C86.4408 104.922 86.6567 104.865 86.91 104.865C87.1483 104.865 87.355 104.917 87.53 105.022C87.7067 105.126 87.8433 105.278 87.94 105.48C88.0367 105.682 88.085 105.927 88.085 106.217C88.085 106.481 88.04 106.712 87.95 106.912C87.8617 107.112 87.73 107.269 87.555 107.382C87.3817 107.494 87.1667 107.55 86.91 107.55ZM86.91 107.185C87.065 107.185 87.1958 107.146 87.3025 107.067C87.4092 106.989 87.49 106.877 87.545 106.73C87.6 106.583 87.6275 106.409 87.6275 106.207C87.6275 106.022 87.6033 105.857 87.555 105.71C87.5067 105.562 87.4292 105.444 87.3225 105.357C87.2175 105.271 87.08 105.227 86.91 105.227C86.7533 105.227 86.6208 105.267 86.5125 105.345C86.4042 105.422 86.3217 105.533 86.265 105.68C86.21 105.827 86.1825 106.002 86.1825 106.207C86.1825 106.389 86.2075 106.554 86.2575 106.702C86.3075 106.851 86.3858 106.968 86.4925 107.055C86.5992 107.142 86.7383 107.185 86.91 107.185ZM88.6901 107.5V104.915H89.1351V105.29C89.2068 105.177 89.3051 105.077 89.4301 104.992C89.5551 104.907 89.7176 104.865 89.9176 104.865C90.011 104.865 90.106 104.881 90.2026 104.912C90.301 104.944 90.391 104.992 90.4726 105.055C90.5543 105.118 90.6176 105.196 90.6626 105.287C90.7426 105.161 90.851 105.059 90.9876 104.982C91.1243 104.904 91.2785 104.865 91.4501 104.865C91.5401 104.865 91.6343 104.879 91.7326 104.907C91.831 104.934 91.9218 104.982 92.0051 105.052C92.0901 105.121 92.1593 105.217 92.2126 105.34C92.266 105.462 92.2926 105.618 92.2926 105.81V107.5H91.8276V105.855C91.8276 105.698 91.8026 105.577 91.7526 105.492C91.7026 105.406 91.6368 105.345 91.5551 105.31C91.4751 105.275 91.3893 105.257 91.2976 105.257C91.2176 105.257 91.1326 105.273 91.0426 105.305C90.9526 105.337 90.876 105.39 90.8126 105.465C90.7493 105.54 90.7176 105.642 90.7176 105.772V107.5H90.2576V105.72C90.2576 105.618 90.2301 105.533 90.1751 105.465C90.1218 105.397 90.0543 105.345 89.9726 105.31C89.8926 105.275 89.8126 105.257 89.7326 105.257C89.6443 105.257 89.5551 105.275 89.4651 105.31C89.3768 105.345 89.3018 105.401 89.2401 105.477C89.1801 105.552 89.1501 105.651 89.1501 105.772V107.5H88.6901ZM94.3943 108.325C94.2427 108.325 94.1385 108.314 94.0818 108.293C94.0252 108.271 93.9968 108.26 93.9968 108.26V107.96L94.2593 107.965C94.356 107.968 94.436 107.962 94.4993 107.945C94.5627 107.928 94.6135 107.906 94.6518 107.878C94.6902 107.849 94.7193 107.818 94.7393 107.783C94.761 107.748 94.7785 107.714 94.7918 107.683L94.8818 107.437L93.8718 104.915H94.3393L95.1018 106.91L95.8593 104.915H96.3118L95.2218 107.695C95.1552 107.858 95.0802 107.986 94.9968 108.078C94.9152 108.169 94.8235 108.233 94.7218 108.27C94.6218 108.307 94.5127 108.325 94.3943 108.325ZM97.7401 107.55C97.5017 107.55 97.2934 107.499 97.1151 107.397C96.9367 107.294 96.7984 107.143 96.7001 106.945C96.6017 106.747 96.5526 106.504 96.5526 106.217C96.5526 105.947 96.5984 105.711 96.6901 105.507C96.7817 105.304 96.9159 105.147 97.0926 105.035C97.2709 104.922 97.4867 104.865 97.7401 104.865C97.9784 104.865 98.1851 104.917 98.3601 105.022C98.5367 105.126 98.6734 105.278 98.7701 105.48C98.8667 105.682 98.9151 105.927 98.9151 106.217C98.9151 106.481 98.8701 106.712 98.7801 106.912C98.6917 107.112 98.5601 107.269 98.3851 107.382C98.2117 107.494 97.9967 107.55 97.7401 107.55ZM97.7401 107.185C97.8951 107.185 98.0259 107.146 98.1326 107.067C98.2392 106.989 98.3201 106.877 98.3751 106.73C98.4301 106.583 98.4576 106.409 98.4576 106.207C98.4576 106.022 98.4334 105.857 98.3851 105.71C98.3367 105.562 98.2592 105.444 98.1526 105.357C98.0476 105.271 97.9101 105.227 97.7401 105.227C97.5834 105.227 97.4509 105.267 97.3426 105.345C97.2342 105.422 97.1517 105.533 97.0951 105.68C97.0401 105.827 97.0126 106.002 97.0126 106.207C97.0126 106.389 97.0376 106.554 97.0876 106.702C97.1376 106.851 97.2159 106.968 97.3226 107.055C97.4292 107.142 97.5684 107.185 97.7401 107.185ZM100.431 107.55C100.296 107.548 100.169 107.529 100.049 107.492C99.9303 107.454 99.8253 107.398 99.7336 107.325C99.642 107.252 99.5695 107.161 99.5161 107.052C99.4645 106.942 99.4386 106.815 99.4386 106.67V104.915H99.9011V106.622C99.9011 106.791 99.9528 106.927 100.056 107.032C100.161 107.137 100.319 107.19 100.529 107.19C100.719 107.19 100.871 107.141 100.986 107.042C101.103 106.942 101.161 106.794 101.161 106.597V104.915H101.621V107.5H101.254L101.206 107.005C101.174 107.135 101.12 107.24 101.044 107.32C100.969 107.4 100.878 107.459 100.771 107.497C100.666 107.534 100.553 107.552 100.431 107.55ZM102.372 107.5V104.915H102.812V105.412C102.855 105.289 102.916 105.187 102.994 105.107C103.073 105.026 103.162 104.965 103.262 104.925C103.363 104.885 103.468 104.865 103.577 104.865C103.615 104.865 103.653 104.867 103.689 104.873C103.726 104.877 103.754 104.886 103.774 104.897V105.345C103.749 105.333 103.717 105.326 103.677 105.322C103.638 105.317 103.606 105.315 103.579 105.315C103.476 105.308 103.379 105.315 103.289 105.335C103.199 105.353 103.12 105.386 103.052 105.432C102.983 105.479 102.929 105.541 102.889 105.617C102.851 105.692 102.832 105.784 102.832 105.892V107.5H102.372ZM19.0975 114.55C18.9308 114.55 18.7833 114.521 18.655 114.462C18.5267 114.402 18.4258 114.317 18.3525 114.205C18.2808 114.093 18.245 113.958 18.245 113.8C18.245 113.513 18.345 113.3 18.545 113.16C18.745 113.02 19.0658 112.945 19.5075 112.935L19.97 112.922V112.72C19.97 112.562 19.9225 112.437 19.8275 112.345C19.7325 112.252 19.585 112.205 19.385 112.205C19.2367 112.207 19.1058 112.242 18.9925 112.31C18.8808 112.378 18.8083 112.49 18.775 112.645H18.3675C18.3775 112.477 18.425 112.335 18.51 112.22C18.595 112.103 18.7133 112.015 18.865 111.955C19.0183 111.895 19.1992 111.865 19.4075 111.865C19.6325 111.865 19.8192 111.897 19.9675 111.96C20.1175 112.023 20.2292 112.117 20.3025 112.24C20.3775 112.363 20.415 112.515 20.415 112.695V114.5H20.02L19.9875 114.015C19.8875 114.217 19.76 114.357 19.605 114.435C19.4517 114.512 19.2825 114.55 19.0975 114.55ZM19.2375 114.217C19.3242 114.217 19.41 114.202 19.495 114.17C19.5817 114.138 19.6608 114.096 19.7325 114.042C19.8042 113.987 19.8608 113.927 19.9025 113.86C19.9458 113.792 19.9683 113.722 19.97 113.65V113.207L19.585 113.215C19.3883 113.218 19.2233 113.238 19.09 113.275C18.9583 113.312 18.8592 113.369 18.7925 113.447C18.7275 113.526 18.695 113.628 18.695 113.755C18.695 113.9 18.745 114.013 18.845 114.095C18.9467 114.177 19.0775 114.217 19.2375 114.217ZM22.2348 111.865C22.4198 111.865 22.5864 111.901 22.7348 111.972C22.8831 112.042 23.0039 112.142 23.0973 112.272C23.1923 112.402 23.2514 112.556 23.2748 112.732H22.8648C22.8498 112.642 22.8148 112.56 22.7598 112.485C22.7064 112.41 22.6356 112.35 22.5473 112.305C22.4589 112.26 22.3556 112.237 22.2373 112.237C22.0156 112.237 21.8356 112.317 21.6973 112.477C21.5589 112.637 21.4898 112.882 21.4898 113.212C21.4898 113.511 21.5531 113.75 21.6798 113.93C21.8081 114.108 21.9964 114.197 22.2448 114.197C22.3631 114.197 22.4656 114.175 22.5523 114.13C22.6406 114.083 22.7114 114.022 22.7648 113.947C22.8181 113.871 22.8523 113.789 22.8673 113.702H23.2698C23.2481 113.876 23.1898 114.026 23.0948 114.152C22.9998 114.279 22.8781 114.377 22.7298 114.447C22.5831 114.516 22.4181 114.55 22.2348 114.55C22.0031 114.55 21.7973 114.499 21.6173 114.397C21.4389 114.296 21.2989 114.146 21.1973 113.947C21.0956 113.749 21.0448 113.506 21.0448 113.217C21.0448 112.947 21.0906 112.712 21.1823 112.51C21.2756 112.307 21.4106 112.148 21.5873 112.035C21.7656 111.922 21.9814 111.865 22.2348 111.865ZM24.9301 111.865C25.1151 111.865 25.2817 111.901 25.4301 111.972C25.5784 112.042 25.6992 112.142 25.7926 112.272C25.8876 112.402 25.9467 112.556 25.9701 112.732H25.5601C25.5451 112.642 25.5101 112.56 25.4551 112.485C25.4017 112.41 25.3309 112.35 25.2426 112.305C25.1542 112.26 25.0509 112.237 24.9326 112.237C24.7109 112.237 24.5309 112.317 24.3926 112.477C24.2542 112.637 24.1851 112.882 24.1851 113.212C24.1851 113.511 24.2484 113.75 24.3751 113.93C24.5034 114.108 24.6917 114.197 24.9401 114.197C25.0584 114.197 25.1609 114.175 25.2476 114.13C25.3359 114.083 25.4067 114.022 25.4601 113.947C25.5134 113.871 25.5476 113.789 25.5626 113.702H25.9651C25.9434 113.876 25.8851 114.026 25.7901 114.152C25.6951 114.279 25.5734 114.377 25.4251 114.447C25.2784 114.516 25.1134 114.55 24.9301 114.55C24.6984 114.55 24.4926 114.499 24.3126 114.397C24.1342 114.296 23.9942 114.146 23.8926 113.947C23.7909 113.749 23.7401 113.506 23.7401 113.217C23.7401 112.947 23.7859 112.712 23.8776 112.51C23.9709 112.307 24.1059 112.148 24.2826 112.035C24.4609 111.922 24.6767 111.865 24.9301 111.865ZM27.6229 114.55C27.3846 114.55 27.1762 114.499 26.9979 114.397C26.8196 114.294 26.6812 114.143 26.5829 113.945C26.4846 113.747 26.4354 113.504 26.4354 113.217C26.4354 112.947 26.4812 112.711 26.5729 112.507C26.6646 112.304 26.7987 112.147 26.9754 112.035C27.1537 111.922 27.3696 111.865 27.6229 111.865C27.8612 111.865 28.0679 111.917 28.2429 112.022C28.4196 112.126 28.5562 112.278 28.6529 112.48C28.7496 112.682 28.7979 112.927 28.7979 113.217C28.7979 113.481 28.7529 113.712 28.6629 113.912C28.5746 114.112 28.4429 114.269 28.2679 114.382C28.0946 114.494 27.8796 114.55 27.6229 114.55ZM27.6229 114.185C27.7779 114.185 27.9087 114.146 28.0154 114.067C28.1221 113.989 28.2029 113.877 28.2579 113.73C28.3129 113.583 28.3404 113.409 28.3404 113.207C28.3404 113.022 28.3162 112.857 28.2679 112.71C28.2196 112.562 28.1421 112.444 28.0354 112.357C27.9304 112.271 27.7929 112.227 27.6229 112.227C27.4662 112.227 27.3337 112.267 27.2254 112.345C27.1171 112.422 27.0346 112.533 26.9779 112.68C26.9229 112.827 26.8954 113.002 26.8954 113.207C26.8954 113.389 26.9204 113.554 26.9704 113.702C27.0204 113.851 27.0987 113.968 27.2054 114.055C27.3121 114.142 27.4512 114.185 27.6229 114.185ZM30.3139 114.55C30.1789 114.548 30.0514 114.529 29.9314 114.492C29.8131 114.454 29.7081 114.398 29.6164 114.325C29.5248 114.252 29.4523 114.161 29.3989 114.052C29.3473 113.942 29.3214 113.815 29.3214 113.67V111.915H29.7839V113.622C29.7839 113.791 29.8356 113.927 29.9389 114.032C30.0439 114.137 30.2014 114.19 30.4114 114.19C30.6014 114.19 30.7539 114.141 30.8689 114.042C30.9856 113.942 31.0439 113.794 31.0439 113.597V111.915H31.5039V114.5H31.1364L31.0889 114.005C31.0573 114.135 31.0031 114.24 30.9264 114.32C30.8514 114.4 30.7606 114.459 30.6539 114.497C30.5489 114.534 30.4356 114.552 30.3139 114.55ZM32.2546 114.5V111.915H32.7021V112.29C32.7437 112.218 32.8012 112.151 32.8746 112.087C32.9496 112.024 33.0396 111.973 33.1446 111.935C33.2512 111.897 33.3737 111.877 33.5121 111.877C33.6754 111.877 33.8254 111.91 33.9621 111.975C34.1004 112.04 34.2104 112.142 34.2921 112.28C34.3754 112.417 34.4171 112.593 34.4171 112.81V114.5H33.9546V112.855C33.9546 112.653 33.9012 112.504 33.7946 112.407C33.6896 112.309 33.5529 112.26 33.3846 112.26C33.2679 112.26 33.1587 112.279 33.0571 112.317C32.9554 112.354 32.8729 112.411 32.8096 112.487C32.7462 112.562 32.7146 112.657 32.7146 112.772V114.5H32.2546ZM36.3316 112.252H35.7491V113.86C35.7491 113.952 35.7582 114.019 35.7766 114.062C35.7966 114.104 35.8291 114.131 35.8741 114.142C35.9207 114.154 35.9841 114.16 36.0641 114.16H36.3466V114.47C36.3149 114.482 36.2666 114.492 36.2016 114.5C36.1382 114.508 36.0591 114.513 35.9641 114.513C35.7857 114.513 35.6474 114.488 35.5491 114.44C35.4507 114.392 35.3816 114.32 35.3416 114.225C35.3032 114.13 35.2841 114.013 35.2841 113.875V112.252H34.8641V111.915H35.2966L35.4091 111.162H35.7491V111.912H36.3316V112.252ZM38.6481 111.915V114.5H38.2006V111.915H38.6481ZM38.6581 110.887V111.367H38.1856V110.887H38.6581ZM40.3791 114.55C40.1991 114.55 40.0316 114.523 39.8766 114.467C39.7233 114.411 39.5958 114.323 39.4941 114.205C39.3924 114.085 39.3283 113.932 39.3016 113.747H39.7216C39.7449 113.849 39.7866 113.934 39.8466 114.002C39.9083 114.069 39.9849 114.12 40.0766 114.155C40.1683 114.188 40.2683 114.205 40.3766 114.205C40.5499 114.205 40.6899 114.172 40.7966 114.107C40.9033 114.042 40.9566 113.942 40.9566 113.807C40.9566 113.712 40.9283 113.637 40.8716 113.58C40.8166 113.522 40.7308 113.479 40.6141 113.452L40.0791 113.32C39.8708 113.27 39.7041 113.192 39.5791 113.085C39.4541 112.978 39.3916 112.829 39.3916 112.637C39.3899 112.486 39.4258 112.352 39.4991 112.237C39.5724 112.122 39.6824 112.032 39.8291 111.965C39.9758 111.898 40.1583 111.865 40.3766 111.865C40.6566 111.865 40.8824 111.928 41.0541 112.055C41.2274 112.18 41.3174 112.364 41.3241 112.607H40.9166C40.8999 112.484 40.8441 112.387 40.7491 112.315C40.6558 112.242 40.5299 112.205 40.3716 112.205C40.2066 112.205 40.0724 112.238 39.9691 112.305C39.8658 112.37 39.8141 112.472 39.8141 112.61C39.8141 112.702 39.8508 112.774 39.9241 112.827C39.9974 112.879 40.1058 112.922 40.2491 112.957L40.7666 113.088C40.8866 113.119 40.9849 113.161 41.0616 113.212C41.1399 113.264 41.2016 113.322 41.2466 113.385C41.2933 113.448 41.3258 113.515 41.3441 113.585C41.3641 113.653 41.3741 113.719 41.3741 113.782C41.3741 113.941 41.3341 114.077 41.2541 114.192C41.1758 114.306 41.0624 114.394 40.9141 114.457C40.7674 114.519 40.5891 114.55 40.3791 114.55ZM45.9948 113.123C45.9948 113.414 45.9473 113.667 45.8523 113.882C45.7573 114.096 45.6031 114.261 45.3898 114.377C45.1781 114.493 44.8973 114.55 44.5473 114.55C44.1956 114.55 43.9139 114.492 43.7023 114.375C43.4906 114.257 43.3373 114.089 43.2423 113.872C43.1489 113.656 43.1023 113.397 43.1023 113.097V110.885H43.8448V113.152C43.8448 113.422 43.9098 113.62 44.0398 113.745C44.1698 113.868 44.3389 113.93 44.5473 113.93C44.6856 113.93 44.8081 113.903 44.9148 113.85C45.0214 113.795 45.1048 113.711 45.1648 113.597C45.2264 113.482 45.2573 113.334 45.2573 113.152V110.885H45.9948V113.123ZM48.0779 114.55C47.8996 114.55 47.7246 114.528 47.5529 114.482C47.3813 114.437 47.2246 114.37 47.0829 114.28C46.9413 114.19 46.8238 114.077 46.7304 113.942C46.6388 113.807 46.5838 113.649 46.5654 113.467H47.3129C47.3379 113.577 47.3854 113.67 47.4554 113.745C47.5254 113.82 47.6138 113.877 47.7204 113.917C47.8271 113.957 47.9454 113.977 48.0754 113.977C48.2088 113.977 48.3304 113.961 48.4404 113.927C48.5504 113.894 48.6388 113.844 48.7054 113.777C48.7721 113.709 48.8054 113.624 48.8054 113.522C48.8054 113.431 48.7779 113.356 48.7229 113.297C48.6696 113.239 48.5971 113.192 48.5054 113.155C48.4138 113.118 48.3096 113.088 48.1929 113.065L47.5679 112.938C47.2946 112.886 47.0779 112.777 46.9179 112.612C46.7579 112.446 46.6754 112.224 46.6704 111.947C46.6688 111.721 46.7288 111.525 46.8504 111.36C46.9738 111.193 47.1404 111.065 47.3504 110.975C47.5621 110.885 47.7988 110.84 48.0604 110.84C48.3721 110.84 48.6338 110.889 48.8454 110.987C49.0588 111.084 49.2204 111.216 49.3304 111.382C49.4421 111.547 49.4996 111.732 49.5029 111.935H48.7704C48.7571 111.808 48.7188 111.707 48.6554 111.632C48.5921 111.557 48.5104 111.503 48.4104 111.47C48.3121 111.437 48.1996 111.42 48.0729 111.42C47.9763 111.42 47.8879 111.431 47.8079 111.452C47.7296 111.474 47.6629 111.505 47.6079 111.545C47.5529 111.583 47.5104 111.629 47.4804 111.682C47.4504 111.736 47.4354 111.796 47.4354 111.862C47.4354 111.967 47.4704 112.052 47.5404 112.117C47.6104 112.182 47.7413 112.236 47.9329 112.277L48.5529 112.405C48.7746 112.448 48.9504 112.512 49.0804 112.597C49.2121 112.682 49.3104 112.778 49.3754 112.885C49.4421 112.992 49.4854 113.101 49.5054 113.212C49.5271 113.322 49.5379 113.424 49.5379 113.517C49.5379 113.712 49.4763 113.888 49.3529 114.045C49.2313 114.2 49.0613 114.323 48.8429 114.415C48.6246 114.505 48.3696 114.55 48.0779 114.55ZM52.6093 114.55C52.176 114.55 51.8243 114.463 51.5543 114.29C51.2843 114.115 51.1293 113.846 51.0893 113.482L51.8493 113.467C51.8893 113.632 51.9751 113.758 52.1068 113.845C52.2401 113.93 52.4068 113.972 52.6068 113.972C52.7268 113.972 52.8326 113.953 52.9243 113.915C53.0176 113.875 53.091 113.822 53.1443 113.755C53.1976 113.687 53.2243 113.609 53.2243 113.522C53.2243 113.389 53.1818 113.29 53.0968 113.225C53.0118 113.158 52.881 113.105 52.7043 113.065L52.1118 112.938C51.8368 112.882 51.616 112.773 51.4493 112.61C51.2843 112.445 51.2001 112.224 51.1968 111.947C51.1951 111.721 51.256 111.525 51.3793 111.36C51.5043 111.193 51.6735 111.065 51.8868 110.975C52.1018 110.885 52.3426 110.84 52.6093 110.84C52.8826 110.84 53.1185 110.889 53.3168 110.987C53.5168 111.084 53.6701 111.215 53.7768 111.38C53.8851 111.543 53.9376 111.724 53.9343 111.922L53.1968 111.935C53.1735 111.775 53.1201 111.649 53.0368 111.557C52.9535 111.466 52.8151 111.42 52.6218 111.42C52.5218 111.42 52.4326 111.431 52.3543 111.452C52.276 111.474 52.2085 111.505 52.1518 111.545C52.0951 111.583 52.0518 111.629 52.0218 111.682C51.9935 111.736 51.9793 111.796 51.9793 111.862C51.9793 111.967 52.0143 112.051 52.0843 112.112C52.156 112.172 52.2901 112.228 52.4868 112.28L53.0693 112.422C53.3976 112.501 53.6343 112.635 53.7793 112.825C53.926 113.015 53.9993 113.246 53.9993 113.517C53.9993 113.726 53.9418 113.907 53.8268 114.062C53.7135 114.217 53.5526 114.337 53.3443 114.422C53.136 114.508 52.891 114.55 52.6093 114.55ZM52.2968 110.367H52.9293V111.017H52.2968V110.367ZM52.2843 114.327H52.9143V114.978H52.2843V114.327ZM55.1051 114.5V111.792H54.4601V111.38C54.6668 111.38 54.8335 111.361 54.9601 111.322C55.0885 111.282 55.1843 111.226 55.2476 111.152C55.311 111.077 55.3485 110.988 55.3601 110.885H55.8451V114.5H55.1051ZM57.9988 110.835C58.4288 110.835 58.768 110.996 59.0163 111.317C59.2646 111.637 59.3888 112.098 59.3888 112.7C59.3888 113.298 59.2663 113.757 59.0213 114.077C58.7763 114.396 58.4355 114.555 57.9988 114.555C57.5605 114.555 57.218 114.396 56.9713 114.077C56.7263 113.759 56.6038 113.301 56.6038 112.702C56.6038 112.302 56.6605 111.963 56.7738 111.685C56.8871 111.407 57.048 111.196 57.2563 111.052C57.4646 110.907 57.7121 110.835 57.9988 110.835ZM57.9988 113.957C58.2138 113.957 58.3713 113.862 58.4713 113.67C58.5713 113.477 58.6213 113.154 58.6213 112.702C58.6213 112.241 58.5705 111.91 58.4688 111.71C58.3671 111.51 58.2096 111.41 57.9963 111.41C57.783 111.41 57.6238 111.511 57.5188 111.712C57.4155 111.914 57.3638 112.244 57.3638 112.702C57.3638 113.152 57.4155 113.474 57.5188 113.667C57.6221 113.861 57.7821 113.957 57.9988 113.957ZM61.4494 110.885H62.1669V113.088H62.7244V113.7H62.1669V114.5H61.4644L61.4669 113.7H59.8019V113.1L61.4494 110.885ZM60.4769 113.088H61.4669V111.762L60.4769 113.088ZM63.1157 114.5V113.705H63.9157V114.5H63.1157ZM65.7633 114.555C65.5383 114.555 65.3283 114.512 65.1333 114.425C64.9383 114.338 64.7792 114.217 64.6558 114.06C64.5325 113.902 64.4633 113.717 64.4483 113.505H65.1433C65.1733 113.645 65.24 113.759 65.3433 113.847C65.4467 113.934 65.5767 113.977 65.7333 113.977C65.9067 113.977 66.0583 113.937 66.1883 113.855C66.32 113.773 66.4183 113.643 66.4833 113.465C66.55 113.287 66.5733 113.053 66.5533 112.765C66.5067 112.853 66.4417 112.931 66.3583 112.997C66.2767 113.062 66.1808 113.113 66.0708 113.15C65.9608 113.185 65.8383 113.202 65.7033 113.202C65.4583 113.202 65.2408 113.157 65.0508 113.065C64.8625 112.972 64.7142 112.84 64.6058 112.67C64.4992 112.498 64.4458 112.295 64.4458 112.06C64.4458 111.823 64.5025 111.612 64.6158 111.427C64.7292 111.242 64.8875 111.097 65.0908 110.992C65.2942 110.887 65.5325 110.835 65.8058 110.835C66.1125 110.835 66.3767 110.908 66.5983 111.055C66.8217 111.2 66.9925 111.407 67.1108 111.675C67.2308 111.942 67.2908 112.256 67.2908 112.617C67.2908 113.049 67.2292 113.409 67.1058 113.697C66.9842 113.984 66.8092 114.199 66.5808 114.342C66.3525 114.484 66.08 114.555 65.7633 114.555ZM65.8283 112.622C65.93 112.622 66.0283 112.6 66.1233 112.555C66.22 112.508 66.2992 112.45 66.3608 112.38C66.4225 112.31 66.4533 112.237 66.4533 112.162C66.455 112.001 66.4292 111.862 66.3758 111.747C66.3242 111.631 66.2508 111.542 66.1558 111.48C66.0625 111.418 65.9533 111.387 65.8283 111.387C65.7133 111.387 65.6108 111.414 65.5208 111.467C65.4308 111.521 65.36 111.596 65.3083 111.692C65.2567 111.789 65.2308 111.901 65.2308 112.027C65.2308 112.216 65.2858 112.362 65.3958 112.467C65.5058 112.571 65.65 112.622 65.8283 112.622ZM69.1121 110.835C69.5421 110.835 69.8812 110.996 70.1296 111.317C70.3779 111.637 70.5021 112.098 70.5021 112.7C70.5021 113.298 70.3796 113.757 70.1346 114.077C69.8896 114.396 69.5487 114.555 69.1121 114.555C68.6737 114.555 68.3312 114.396 68.0846 114.077C67.8396 113.759 67.7171 113.301 67.7171 112.702C67.7171 112.302 67.7737 111.963 67.8871 111.685C68.0004 111.407 68.1612 111.196 68.3696 111.052C68.5779 110.907 68.8254 110.835 69.1121 110.835ZM69.1121 113.957C69.3271 113.957 69.4846 113.862 69.5846 113.67C69.6846 113.477 69.7346 113.154 69.7346 112.702C69.7346 112.241 69.6837 111.91 69.5821 111.71C69.4804 111.51 69.3229 111.41 69.1096 111.41C68.8962 111.41 68.7371 111.511 68.6321 111.712C68.5287 111.914 68.4771 112.244 68.4771 112.702C68.4771 113.152 68.5287 113.474 68.6321 113.667C68.7354 113.861 68.8954 113.957 69.1121 113.957ZM70.9947 114.5V113.91H71.5447V114.5H70.9947Z" fill="#36536B"/>
<path fill-rule="evenodd" clip-rule="evenodd" d="M19.9089 92.2277V90.7408L21.1203 88.6914H20.3521L19.5597 90.1245L18.7577 88.6914H17.9967L19.2057 90.7384V92.2277H19.9089ZM22.5364 92.2766C22.7901 92.2766 23.0065 92.2212 23.1855 92.1103C23.3645 91.9995 23.5018 91.8466 23.5973 91.6518C23.6929 91.457 23.7406 91.2324 23.7406 90.978C23.7406 90.7074 23.6916 90.4726 23.5937 90.2737C23.4958 90.0748 23.3569 89.9211 23.1771 89.8127C22.9972 89.7043 22.7845 89.6501 22.5389 89.6501C22.2932 89.6501 22.0801 89.7055 21.8994 89.8164C21.7188 89.9272 21.5791 90.0821 21.4804 90.281C21.3816 90.4799 21.3323 90.7123 21.3323 90.978C21.3323 91.2438 21.3816 91.4737 21.4804 91.6677C21.5791 91.8617 21.7188 92.0117 21.8994 92.1177C22.0801 92.2236 22.2924 92.2766 22.5364 92.2766ZM22.2282 91.631C22.3036 91.7076 22.4072 91.7459 22.5389 91.7459C22.6625 91.7459 22.762 91.7093 22.8375 91.6359C22.9129 91.5625 22.9679 91.4659 23.0025 91.3461C23.037 91.2263 23.0542 91.0954 23.0542 90.9536C23.0542 90.8199 23.0386 90.6935 23.0073 90.5745C22.976 90.4555 22.9226 90.3593 22.8471 90.2859C22.7717 90.2126 22.6689 90.1759 22.5389 90.1759C22.4152 90.1759 22.3153 90.2105 22.239 90.2798C22.1627 90.3491 22.107 90.4429 22.0716 90.5611C22.0363 90.6793 22.0186 90.8101 22.0186 90.9536C22.0186 91.0856 22.0347 91.2124 22.0668 91.3339C22.0989 91.4553 22.1527 91.5544 22.2282 91.631ZM25.1254 92.2766C25.2234 92.2766 25.3233 92.2616 25.4253 92.2314C25.5272 92.2012 25.6179 92.1466 25.6974 92.0675C25.7769 91.9885 25.8311 91.8747 25.86 91.7264L25.9418 92.2277H26.4717V89.699H25.7757V91.3449C25.7757 91.4753 25.7351 91.5768 25.6541 91.6493C25.573 91.7219 25.4634 91.7582 25.3253 91.7582C25.1792 91.7582 25.0684 91.7207 24.993 91.6457C24.9175 91.5707 24.8798 91.4745 24.8798 91.3571V89.699H24.1765V91.4476C24.1765 91.5829 24.2042 91.7019 24.2596 91.8046C24.315 91.9074 24.3885 91.9938 24.48 92.0639C24.5715 92.134 24.673 92.187 24.7846 92.2228C24.8962 92.2587 25.0098 92.2766 25.1254 92.2766ZM27.7457 90.8435V92.2277H27.0425V89.699H27.7192V90.2982C27.7593 90.1694 27.8159 90.0565 27.889 89.9594C27.9621 89.8624 28.0508 89.7866 28.1551 89.732C28.2595 89.6774 28.3775 89.6501 28.5091 89.6501C28.5316 89.6501 28.5529 89.6513 28.573 89.6537C28.593 89.6562 28.6079 89.6599 28.6175 89.6647V90.3446C28.6031 90.3381 28.5858 90.334 28.5657 90.3324C28.5457 90.3308 28.5276 90.3291 28.5116 90.3275C28.3735 90.3161 28.2555 90.3202 28.1575 90.3397C28.0596 90.3593 27.9801 90.3927 27.9191 90.44C27.8581 90.4873 27.8139 90.5452 27.7866 90.6136C27.7593 90.6821 27.7457 90.7587 27.7457 90.8435ZM30.5587 92.2277L30.8501 91.4085H32.1024L32.3866 92.2277H33.0874L31.8423 88.6914H31.1005L29.853 92.2277H30.5587ZM31.0066 90.7848H31.9338L31.4738 89.3811L31.0066 90.7848ZM34.2242 93.0152V91.8487C34.2595 91.909 34.3008 91.9648 34.3482 92.0162C34.3956 92.0675 34.4493 92.1128 34.5096 92.1519C34.5698 92.191 34.6352 92.2216 34.7058 92.2436C34.7765 92.2656 34.8519 92.2766 34.9322 92.2766C35.1281 92.2766 35.3039 92.2294 35.4596 92.1348C35.6154 92.0402 35.7378 91.8947 35.8269 91.6983C35.916 91.5018 35.9606 91.2503 35.9606 90.9438C35.9606 90.6487 35.9192 90.4054 35.8366 90.2138C35.7539 90.0222 35.6403 89.8804 35.4958 89.7883C35.3513 89.6961 35.1867 89.6501 35.0021 89.6501C34.917 89.6501 34.8359 89.6603 34.7588 89.6806C34.6817 89.701 34.6103 89.73 34.5445 89.7675C34.4786 89.805 34.4188 89.8486 34.365 89.8983C34.3113 89.948 34.2659 90.0031 34.229 90.0634L34.2266 89.699H33.5209V93.0152H34.2242ZM34.4614 91.6408C34.5409 91.7158 34.6416 91.7533 34.7636 91.7533C34.9162 91.7533 35.0442 91.6889 35.1478 91.5601C35.2513 91.4313 35.3031 91.2275 35.3031 90.9487C35.3031 90.7041 35.2537 90.513 35.155 90.3752C35.0562 90.2374 34.9258 90.1685 34.7636 90.1685C34.5822 90.1685 34.4469 90.2431 34.3578 90.3923C34.2687 90.5415 34.2242 90.7269 34.2242 90.9487C34.2242 91.0905 34.2438 91.2226 34.2832 91.3449C34.3225 91.4671 34.3819 91.5658 34.4614 91.6408ZM37.131 93.0152V91.8487C37.1664 91.909 37.2077 91.9648 37.2551 92.0162C37.3024 92.0675 37.3562 92.1128 37.4164 92.1519C37.4766 92.191 37.5421 92.2216 37.6127 92.2436C37.6834 92.2656 37.7588 92.2766 37.8391 92.2766C38.035 92.2766 38.2108 92.2294 38.3665 92.1348C38.5223 92.0402 38.6447 91.8947 38.7338 91.6983C38.8229 91.5018 38.8675 91.2503 38.8675 90.9438C38.8675 90.6487 38.8261 90.4054 38.7434 90.2138C38.6607 90.0222 38.5471 89.8804 38.4026 89.7883C38.2581 89.6961 38.0936 89.6501 37.9089 89.6501C37.8238 89.6501 37.7428 89.6603 37.6657 89.6806C37.5886 89.701 37.5172 89.73 37.4513 89.7675C37.3855 89.805 37.3257 89.8486 37.2719 89.8983C37.2181 89.948 37.1728 90.0031 37.1359 90.0634L37.1334 89.699H36.4278V93.0152H37.131ZM37.3683 91.6408C37.4477 91.7158 37.5485 91.7533 37.6705 91.7533C37.823 91.7533 37.9511 91.6889 38.0546 91.5601C38.1582 91.4313 38.21 91.2275 38.21 90.9487C38.21 90.7041 38.1606 90.513 38.0619 90.3752C37.9631 90.2374 37.8327 90.1685 37.6705 90.1685C37.4891 90.1685 37.3538 90.2431 37.2647 90.3923C37.1756 90.5415 37.131 90.7269 37.131 90.9487C37.131 91.0905 37.1507 91.2226 37.19 91.3449C37.2294 91.4671 37.2888 91.5658 37.3683 91.6408Z" fill="#BA4270"/>
<path opacity="0.5" fill-rule="evenodd" clip-rule="evenodd" d="M88.5528 92.1739C88.446 92.2424 88.2947 92.2766 88.0988 92.2766C87.9752 92.2766 87.8592 92.262 87.7508 92.2326C87.6424 92.2033 87.5706 92.1813 87.5353 92.1666L87.5666 91.7337C87.6164 91.7516 87.6738 91.7741 87.7388 91.801C87.8038 91.8279 87.8845 91.8413 87.9808 91.8413C88.1382 91.8413 88.2461 91.7973 88.3047 91.7093C88.3633 91.6212 88.3927 91.4729 88.3927 91.2642V88.6914H88.8382V91.3938C88.8382 91.5813 88.8173 91.7411 88.7756 91.8731C88.7338 92.0052 88.6596 92.1054 88.5528 92.1739ZM90.8191 92.2241C90.7171 92.2607 90.6075 92.2783 90.4903 92.2766C90.3603 92.275 90.2378 92.2558 90.123 92.2192C90.0083 92.1825 89.9067 92.1283 89.8184 92.0565C89.7301 91.9848 89.6606 91.8955 89.6101 91.7887C89.5595 91.6819 89.5342 91.5576 89.5342 91.4158V89.699H89.9798V91.3693C89.9798 91.534 90.0299 91.6677 90.1303 91.7704C90.2306 91.8731 90.3819 91.9245 90.5842 91.9245C90.7673 91.9245 90.9146 91.876 91.0262 91.779C91.1378 91.6819 91.1936 91.5373 91.1936 91.3449V89.699H91.6367V92.2277H91.2827L91.2369 91.7435C91.2064 91.8707 91.1546 91.9734 91.0816 92.0516C91.0085 92.1299 90.921 92.1874 90.8191 92.2241ZM93.2166 92.2766C93.4189 92.2766 93.5911 92.2461 93.7332 92.1849C93.8753 92.1238 93.9844 92.0374 94.0607 91.9257C94.137 91.814 94.1751 91.6807 94.1751 91.5258C94.1751 91.4639 94.1659 91.3991 94.1474 91.3314C94.1289 91.2638 94.0976 91.1989 94.0535 91.137C94.0093 91.075 93.9499 91.0188 93.8753 90.9682C93.8006 90.9177 93.7055 90.8769 93.5899 90.846L93.0913 90.7188C92.9533 90.6846 92.8489 90.6418 92.7783 90.5904C92.7076 90.539 92.6723 90.4685 92.6723 90.3789C92.6723 90.2435 92.7221 90.1437 92.8216 90.0793C92.9211 90.0149 93.0504 89.9827 93.2093 89.9827C93.3619 89.9827 93.4835 90.0181 93.5742 90.0891C93.6649 90.16 93.7183 90.2558 93.7344 90.3764H94.1269C94.1205 90.1384 94.0342 89.9578 93.868 89.8347C93.7019 89.7116 93.4839 89.6501 93.2142 89.6501C93.0038 89.6501 92.828 89.6827 92.6867 89.7479C92.5454 89.8131 92.4395 89.902 92.3688 90.0145C92.2982 90.127 92.2637 90.2574 92.2653 90.4058C92.2653 90.5933 92.3255 90.7392 92.4459 90.8435C92.5663 90.9479 92.7269 91.0245 92.9276 91.0734L93.443 91.203C93.5553 91.2291 93.6384 91.2703 93.6922 91.3265C93.746 91.3828 93.7729 91.4574 93.7729 91.5503C93.7729 91.6824 93.7215 91.7802 93.6188 91.8438C93.516 91.9074 93.3811 91.9391 93.2142 91.9391C93.1098 91.9391 93.0135 91.9224 92.9252 91.889C92.8369 91.8556 92.7634 91.8059 92.7048 91.7398C92.6462 91.6738 92.6057 91.5911 92.5832 91.4916H92.1786C92.2043 91.6726 92.2661 91.8213 92.364 91.9379C92.462 92.0545 92.5852 92.1401 92.7337 92.1947C92.8822 92.2493 93.0432 92.2766 93.2166 92.2766ZM95.9705 92.2277C95.9087 92.2359 95.832 92.24 95.7405 92.24C95.5687 92.24 95.4355 92.2163 95.3407 92.169C95.246 92.1217 95.1798 92.0516 95.142 91.9587C95.1043 91.8658 95.0855 91.7516 95.0855 91.6163V90.0291H94.6809V89.699H95.0975L95.2059 88.9629H95.5334V89.6965H96.0946V90.0291H95.5334V91.6017C95.5334 91.6913 95.5426 91.7569 95.5611 91.7985C95.5796 91.8401 95.6109 91.8666 95.655 91.878C95.6992 91.8894 95.7598 91.8951 95.8369 91.8951H96.109V92.1984C96.0785 92.2098 96.0323 92.2196 95.9705 92.2277ZM98.3825 92.2277V89.4398L100.251 92.2277H100.649V88.6914H100.203V91.4402L98.3632 88.6914H97.9369V92.2277H98.3825ZM103.09 92.1116C102.922 92.2216 102.714 92.2766 102.467 92.2766C102.237 92.2766 102.037 92.2265 101.865 92.1262C101.693 92.026 101.56 91.8788 101.465 91.6848C101.37 91.4908 101.323 91.2536 101.323 90.9731C101.323 90.709 101.367 90.4775 101.456 90.2786C101.544 90.0797 101.673 89.9252 101.844 89.8152C102.015 89.7051 102.223 89.6501 102.467 89.6501C102.697 89.6501 102.896 89.701 103.066 89.8029C103.235 89.9048 103.366 90.0544 103.459 90.2517C103.552 90.449 103.599 90.6894 103.599 90.9731C103.599 91.2307 103.556 91.4574 103.47 91.653C103.384 91.8487 103.257 92.0015 103.09 92.1116ZM102.467 91.9196C102.302 91.9196 102.168 91.8772 102.065 91.7924C101.962 91.7076 101.887 91.5927 101.838 91.4476C101.79 91.3025 101.766 91.1411 101.766 90.9634C101.766 90.7628 101.793 90.5908 101.847 90.4473C101.901 90.3039 101.98 90.1942 102.084 90.1184C102.188 90.0426 102.316 90.0047 102.467 90.0047C102.631 90.0047 102.764 90.0471 102.866 90.1319C102.968 90.2166 103.042 90.3312 103.088 90.4755C103.135 90.6198 103.158 90.7824 103.158 90.9634C103.158 91.1606 103.132 91.331 103.079 91.4745C103.026 91.618 102.948 91.728 102.845 91.8046C102.742 91.8813 102.616 91.9196 102.467 91.9196ZM105.699 90.3617L105.16 92.2277H104.724L103.955 89.699H104.367L104.938 91.6432H104.977L105.538 89.699H105.875L106.458 91.6383H106.496L107.043 89.699H107.46L106.706 92.2277H106.267L105.699 90.3617Z" fill="#36536B"/>
</g>
<defs>
<filter id="filter0_d_8_2" x="5.24426" y="75" width="135.004" height="72.5532" filterUnits="userSpaceOnUse" color-interpolation-filters="sRGB">
<feFlood flood-opacity="0" result="BackgroundImageFix"/>
<feColorMatrix in="SourceAlpha" type="matrix" values="0 0 0 0 0 0 0 0 0 0 0 0 0 0 0 0 0 0 127 0" result="hardAlpha"/>
<feMorphology radius="10" operator="erode" in="SourceAlpha" result="effect1_dropShadow_8_2"/>
<feOffset dx="10" dy="10"/>
<feGaussianBlur stdDeviation="12.5"/>
<feColorMatrix type="matrix" values="0 0 0 0 0.212302 0 0 0 0 0.32521 0 0 0 0 0.419299 0 0 0 0.25 0"/>
<feBlend mode="normal" in2="BackgroundImageFix" result="effect1_dropShadow_8_2"/>
<feBlend mode="normal" in="SourceGraphic" in2="effect1_dropShadow_8_2" result="shape"/>
</filter>
<linearGradient id="paint0_linear_8_2" x1="4.84363" y1="0" x2="4.84363" y2="5.91549" gradientUnits="userSpaceOnUse">
<stop stop-color="#454545"/>
<stop offset="0.226279" stop-color="#999999"/>
<stop offset="1" stop-color="white"/>
</linearGradient>
<linearGradient id="paint1_linear_8_2" x1="125.799" y1="41.1589" x2="121.223" y2="41.1589" gradientUnits="userSpaceOnUse">
<stop stop-color="white" stop-opacity="0.01"/>
<stop offset="0.222178" stop-color="#BABABA"/>
<stop offset="0.54678" stop-color="white" stop-opacity="0.01"/>
<stop offset="1" stop-color="white" stop-opacity="0.01"/>
</linearGradient>
<linearGradient id="paint2_linear_8_2" x1="1.24195" y1="41.0338" x2="5.82505" y2="41.0338" gradientUnits="userSpaceOnUse">
<stop stop-color="white" stop-opacity="0.01"/>
<stop offset="0.222178" stop-color="#BABABA"/>
<stop offset="0.54678" stop-color="white" stop-opacity="0.01"/>
<stop offset="1" stop-color="white" stop-opacity="0.01"/>
</linearGradient>
<linearGradient id="paint3_linear_8_2" x1="7.43986" y1="6" x2="7.43986" y2="227.264" gradientUnits="userSpaceOnUse">
<stop stop-color="#9CB6CD"/>
<stop offset="0.420564" stop-color="#9AB3CA"/>
<stop offset="0.716592" stop-color="#557496"/>
<stop offset="1" stop-color="#475178"/>
</linearGradient>
<clipPath id="clip0_8_2">
<rect width="105" height="43" fill="white" transform="translate(10.2443 80)"/>
</clipPath>
</defs>
</svg>
